<?xml version="1.0" encoding="UTF-8" standalone="no"?>
<!-- Created with Inkscape (http://www.inkscape.org/) -->

<svg
   xmlns:dc="http://purl.org/dc/elements/1.1/"
   xmlns:cc="http://creativecommons.org/ns#"
   xmlns:rdf="http://www.w3.org/1999/02/22-rdf-syntax-ns#"
   xmlns:svg="http://www.w3.org/2000/svg"
   xmlns="http://www.w3.org/2000/svg"
   xmlns:sodipodi="http://sodipodi.sourceforge.net/DTD/sodipodi-0.dtd"
   xmlns:inkscape="http://www.inkscape.org/namespaces/inkscape"
   width="1000"
   height="1000"
   viewBox="0 0 1000 1000"
   id="svg2"
   version="1.1"
   inkscape:version="0.91 r13725"
   sodipodi:docname="logo.svg">
  <defs
     id="defs4">
    <clipPath
       clipPathUnits="userSpaceOnUse"
       id="clipPath4628">
      <g
         transform="matrix(0.70487143,-0.7093351,0.7093351,0.70487143,9.0817592,-3.0591348)"
         id="g4630">
        <path
           style="opacity:1;fill:#ff8a0b;fill-opacity:1;fill-rule:evenodd;stroke:none;stroke-width:5;stroke-linecap:butt;stroke-linejoin:miter;stroke-miterlimit:4;stroke-dasharray:none;stroke-opacity:1"
           d="m 338.95751,669.52948 -47.07135,-47.07134 c 0,0 -78.4577,37.31058 -88.34419,134.19804 96.03776,-5.59588 134.94948,-87.59275 135.41554,-87.1267 z"
           id="path4632"
           inkscape:connector-curvature="0"
           sodipodi:nodetypes="cccc" />
        <path
           sodipodi:nodetypes="cccc"
           inkscape:connector-curvature="0"
           id="path4634"
           d="m 326.72885,656.9594 -22.43991,-22.43991 c 0,0 -37.40245,17.78675 -42.11555,63.97505 45.78324,-2.66767 64.33328,-41.75732 64.55546,-41.53514 z"
           style="opacity:1;fill:#f2ed38;fill-opacity:1;fill-rule:evenodd;stroke:none;stroke-width:5;stroke-linecap:butt;stroke-linejoin:round;stroke-miterlimit:4;stroke-dasharray:none;stroke-opacity:1" />
        <path
           style="fill:#ff8a0b;fill-opacity:1;fill-rule:nonzero;stroke:none;stroke-width:7.14285707;stroke-linejoin:round;stroke-miterlimit:4;stroke-dasharray:none;stroke-opacity:1"
           d="m 340.8342,621.03491 c -50.98561,-51.18051 -92.7011,-93.28123 -92.7011,-93.55717 0,-1.0431 14.20951,-23.70291 23.97731,-38.23644 13.00668,-19.35267 37.76689,-52.35191 52.39878,-69.83465 87.27045,-104.27402 189.58016,-177.9181 306.0612,-220.30747 l 9.95248,-3.62187 63.05804,63.14292 63.05804,63.14294 -7.04466,18.4842 c -48.22913,126.54623 -131.70711,234.17351 -251.3259,324.03178 -21.25647,15.96797 -71.85293,50.26744 -73.71606,49.97232 -0.55936,-0.0886 -42.73251,-42.03605 -93.71813,-93.21656 z"
           id="path4636"
           inkscape:connector-curvature="0" />
        <circle
           style="fill:#f2ed38;fill-opacity:1;fill-rule:nonzero;stroke:#ffbb49;stroke-width:7.11798859;stroke-miterlimit:4;stroke-dasharray:none;stroke-opacity:0"
           id="circle4638"
           cx="678.18073"
           cy="-173.60782"
           r="69.534874"
           transform="matrix(0.70710678,0.70710678,-0.70710678,0.70710678,0,0)" />
        <path
           style="fill:#f64105;fill-opacity:1;fill-rule:nonzero;stroke:none;stroke-width:5;stroke-linejoin:round;stroke-miterlimit:4;stroke-dasharray:none;stroke-opacity:1"
           d="m 247.08204,526.38829 c -0.21347,-0.19714 -3.56369,-2.13643 -7.44494,-4.30955 -25.4791,-14.2658 -60.42204,-31.08866 -93.14994,-44.84592 -8.25602,-3.47043 -27.36484,-11.19601 -28.61545,-11.56905 -0.35198,-0.10499 1.76184,-1.82129 5.24221,-4.25637 60.08891,-42.04184 125.16465,-63.91246 185.88157,-62.47098 5.65554,0.13428 12.87667,0.52074 16.04697,0.85884 5.85092,0.62394 14.99471,2.03933 15.3352,2.37375 0.10262,0.10079 -0.97355,1.39346 -2.39147,2.8726 -4.3718,4.56054 -13.98771,15.70472 -21.78915,25.25215 -20.58715,25.19465 -40.07865,52.53868 -62.66133,87.90569 -2.91334,4.56258 -5.46989,8.35223 -5.68125,8.42143 -0.21137,0.0693 -0.55896,-0.0355 -0.77242,-0.23259 z"
           id="path4640"
           inkscape:connector-curvature="0" />
        <path
           style="fill:#f50e0e;fill-opacity:1;fill-rule:nonzero;stroke:none;stroke-width:5;stroke-linejoin:round;stroke-miterlimit:4;stroke-dasharray:none;stroke-opacity:1"
           d="m 315.79448,646.20098 c -47.35841,-47.36633 -86.13416,-86.15405 -86.16831,-86.19495 -0.0342,-0.0409 5.47326,-5.60853 12.23869,-12.37252 l 12.30078,-12.29815 86.18143,86.18181 86.18144,86.1818 -12.31391,12.3113 -12.3139,12.31129 -86.10622,-86.12058 z"
           id="path4642"
           inkscape:connector-curvature="0" />
        <path
           style="fill:#f64105;fill-opacity:1;fill-rule:nonzero;stroke:none;stroke-width:5;stroke-linejoin:round;stroke-miterlimit:4;stroke-dasharray:none;stroke-opacity:1"
           d="m 495.07377,843.10122 c -20.41859,-46.08669 -42.24708,-91.98423 -58.50902,-123.02361 -1.45864,-2.78414 -2.61977,-5.09002 -2.58029,-5.12419 0.0395,-0.0341 1.33191,-0.85383 2.87207,-1.82145 36.2752,-22.79027 65.29169,-43.25881 94.42365,-66.6074 9.86849,-7.90937 19.14955,-15.61867 25.58813,-21.25473 l 3.00029,-2.62633 0.24332,0.94314 c 0.49324,1.91186 1.67337,8.85708 2.14852,12.64428 3.46152,27.59063 1.44937,58.32984 -5.82642,89.00873 -8.53665,35.99542 -24.13553,71.33494 -46.5922,105.55539 -3.67982,5.60748 -12.10905,17.6567 -12.35202,17.6567 -0.025,0 -1.11224,-2.40774 -2.41603,-5.35053 z"
           id="path4644"
           inkscape:connector-curvature="0" />
        <path
           style="fill:#f64105;fill-opacity:1;fill-rule:nonzero;stroke:none;stroke-width:5;stroke-linejoin:round;stroke-miterlimit:4;stroke-dasharray:none;stroke-opacity:0"
           d="m 701.60648,260.14387 -64.56097,-64.56196 7.1019,-2.28208 c 48.78884,-15.6775 95.83592,-24.93528 138.60696,-27.27466 4.16195,-0.22763 8.93064,-0.41399 10.5971,-0.41412 l 3.02996,-2.4e-4 -0.25963,9.10105 c -1.02038,35.76978 -9.31321,82.79755 -22.41406,127.10792 -2.43468,8.23469 -6.93887,22.25018 -7.25956,22.58925 -0.15438,0.16323 -29.33316,-28.75609 -64.8417,-64.26516 z"
           id="path4646"
           inkscape:connector-curvature="0" />
        <path
           style="fill:#f64105;fill-opacity:1;fill-rule:nonzero;stroke:none;stroke-width:5;stroke-linejoin:round;stroke-miterlimit:4;stroke-dasharray:none;stroke-opacity:0"
           d="m 681.0675,233.7573 c -37.18575,-37.18584 -39.09452,-39.11154 -38.85717,-39.20179 0.39455,-0.15 9.73812,-3.20318 11.82036,-3.86251 45.36672,-14.36508 93.9515,-23.48994 132.93099,-24.96617 3.7214,-0.14094 9.44478,-0.28059 9.49967,-0.2318 0.0809,0.0719 -0.19417,11.35319 -0.34008,13.94614 -1.58214,28.114 -6.44833,59.24542 -14.18131,90.72478 l -0.66283,2.69823 -30.55143,0 -30.55141,0 -39.10679,-39.10688 z"
           id="path4648"
           inkscape:connector-curvature="0" />
      </g>
    </clipPath>
    <clipPath
       clipPathUnits="userSpaceOnUse"
       id="clipPath5269">
      <circle
         style="opacity:1;fill:#7fe9be;fill-opacity:1"
         id="circle5271"
         cx="515.71429"
         cy="475.71469"
         r="455.71429" />
    </clipPath>
  </defs>
  <sodipodi:namedview
     id="base"
     pagecolor="#ffffff"
     bordercolor="#666666"
     borderopacity="1.0"
     inkscape:pageopacity="0.0"
     inkscape:pageshadow="2"
     inkscape:zoom="0.7"
     inkscape:cx="416.18349"
     inkscape:cy="459.61292"
     inkscape:document-units="px"
     inkscape:current-layer="layer5"
     showgrid="false"
     units="px"
     inkscape:object-paths="true"
     inkscape:snap-nodes="true"
     inkscape:object-nodes="false"
     showguides="true"
     inkscape:guide-bbox="true"
     inkscape:window-width="1855"
     inkscape:window-height="1056"
     inkscape:window-x="65"
     inkscape:window-y="24"
     inkscape:window-maximized="1"
     showborder="false">
    <sodipodi:guide
       position="-1343.5029,866.71088"
       orientation="1,0"
       id="guide4252" />
  </sodipodi:namedview>
  <metadata
     id="metadata7">
    <rdf:RDF>
      <cc:Work
         rdf:about="">
        <dc:format>image/svg+xml</dc:format>
        <dc:type
           rdf:resource="http://purl.org/dc/dcmitype/StillImage" />
        <dc:title></dc:title>
      </cc:Work>
    </rdf:RDF>
  </metadata>
  <g
     inkscape:groupmode="layer"
     id="layer6"
     inkscape:label="circle">
    <circle
       style="opacity:1;fill:#4acf2e;fill-opacity:0.92387545"
       id="path4451"
       cx="515.71423"
       cy="475.71429"
       r="455.71429" />
  </g>
  <g
     inkscape:label="rocketBody"
     inkscape:groupmode="layer"
     id="layer1"
     transform="translate(0,-52.36203)"
     style="display:inline">
    <path
       style="fill:none;fill-rule:evenodd;stroke:none;stroke-width:1.06710088px;stroke-linecap:butt;stroke-linejoin:miter;stroke-opacity:1"
       d="M 641.02814,246.82949 767.52619,373.32753"
       id="path3370"
       inkscape:connector-curvature="0" />
    <path
       style="fill:none;fill-rule:evenodd;stroke:none;stroke-width:1.1093452px;stroke-linecap:butt;stroke-linejoin:miter;stroke-opacity:1"
       d="M 245.42133,579.60201 434.68894,768.86964"
       id="path3374"
       inkscape:connector-curvature="0" />
    <path
       id="path3391"
       style="fill:none;fill-rule:evenodd;stroke:none;stroke-width:1.10550618px;stroke-linecap:butt;stroke-linejoin:miter;stroke-opacity:1"
       d="m 797.02042,217.44334 c 0,0 8.62678,323.51144 -362.83346,551.08866 M 796.944,217.36691 c 0,0 -323.51144,-8.62678 -551.08867,362.83346"
       inkscape:connector-curvature="0" />
  </g>
  <g
     inkscape:groupmode="layer"
     id="layer2"
     inkscape:label="rocketWing"
     style="display:inline">
    <path
       style="fill:none;fill-rule:evenodd;stroke:none;stroke-width:1.17669344px;stroke-linecap:butt;stroke-linejoin:miter;stroke-opacity:1"
       d="m 338.19642,401.8732 c 0,0 -99.71275,-26.9051 -221.81862,63.50918"
       id="path3419"
       inkscape:connector-curvature="0"
       sodipodi:nodetypes="cc" />
    <path
       style="fill:none;fill-rule:evenodd;stroke:none;stroke-width:1.17669344px;stroke-linecap:butt;stroke-linejoin:miter;stroke-opacity:1"
       d="m 246.49381,528.1477 c 0,0 -48.73194,-30.36133 -131.03961,-62.76327"
       id="path3421"
       inkscape:connector-curvature="0"
       sodipodi:nodetypes="cc" />
    <path
       style="fill:none;fill-rule:evenodd;stroke:none;stroke-width:1.17669344px;stroke-linecap:butt;stroke-linejoin:miter;stroke-opacity:1"
       d="m 337.9148,401.81991 c 0,0 -44.95463,46.65858 -91.55993,126.35362"
       id="path3423"
       inkscape:connector-curvature="0"
       sodipodi:nodetypes="cc" />
    <path
       sodipodi:nodetypes="cc"
       inkscape:connector-curvature="0"
       id="path3425"
       d="m 560.25335,623.87185 c 0,0 28.39094,103.3849 -62.02334,225.49078"
       style="fill:none;fill-rule:evenodd;stroke:none;stroke-width:1.17669344px;stroke-linecap:butt;stroke-linejoin:miter;stroke-opacity:1" />
    <path
       sodipodi:nodetypes="cc"
       inkscape:connector-curvature="0"
       id="path3427"
       d="m 434.38664,716.04053 c 0,0 26.42655,48.88331 63.85184,134.11405"
       style="fill:none;fill-rule:evenodd;stroke:none;stroke-width:1.17669344px;stroke-linecap:butt;stroke-linejoin:miter;stroke-opacity:1" />
    <path
       sodipodi:nodetypes="cc"
       inkscape:connector-curvature="0"
       id="path3429"
       d="m 560.19011,623.86221 c 0,0 -47.94679,43.73466 -125.82931,92.31724"
       style="fill:none;fill-rule:evenodd;stroke:none;stroke-width:1.17669344px;stroke-linecap:butt;stroke-linejoin:miter;stroke-opacity:1" />
  </g>
  <g
     inkscape:groupmode="layer"
     id="layer3"
     inkscape:label="roketBottom">
    <rect
       style="fill:none;fill-rule:evenodd;stroke:none;stroke-width:1.17669344px;stroke-linecap:butt;stroke-linejoin:miter;stroke-opacity:1"
       id="rect3434"
       width="232.56041"
       height="34.473793"
       x="562.73132"
       y="199.27588"
       transform="matrix(0.70710678,0.70710678,-0.70710678,0.70710678,0,0)" />
  </g>
  <g
     inkscape:groupmode="layer"
     id="layer4"
     inkscape:label="rocketFire" />
  <g
     inkscape:groupmode="layer"
     id="layer5"
     inkscape:label="rocketWindow">
    <path
       style="fill:#ff8a0b;fill-opacity:1;fill-rule:nonzero;stroke:none;stroke-width:5;stroke-linejoin:round;stroke-miterlimit:4;stroke-dasharray:none;stroke-opacity:1"
       d=""
       id="path4223"
       inkscape:connector-curvature="0" />
    <path
       style="fill:#ff8a0b;fill-opacity:1;fill-rule:nonzero;stroke:none;stroke-width:5;stroke-linejoin:round;stroke-miterlimit:4;stroke-dasharray:none;stroke-opacity:1"
       d=""
       id="path4225"
       inkscape:connector-curvature="0" />
    <path
       style="opacity:1;fill:#ff8a0b;fill-opacity:1;fill-rule:evenodd;stroke:none;stroke-width:5;stroke-linecap:butt;stroke-linejoin:miter;stroke-miterlimit:4;stroke-dasharray:none;stroke-opacity:1"
       d="m 347.52893,673.81519 -47.07135,-47.07134 c 0,0 -78.4577,37.31058 -88.34419,134.19804 96.03776,-5.59588 134.94948,-87.59275 135.41554,-87.1267 z"
       id="path3437"
       inkscape:connector-curvature="0"
       sodipodi:nodetypes="cccc" />
    <path
       sodipodi:nodetypes="cccc"
       inkscape:connector-curvature="0"
       id="path3439"
       d="M 335.30027,661.24511 312.86036,638.8052 c 0,0 -37.40245,17.78675 -42.11555,63.97505 45.78324,-2.66767 64.33328,-41.75732 64.55546,-41.53514 z"
       style="opacity:1;fill:#f2ed38;fill-opacity:1;fill-rule:evenodd;stroke:none;stroke-width:5;stroke-linecap:butt;stroke-linejoin:round;stroke-miterlimit:4;stroke-dasharray:none;stroke-opacity:1" />
    <path
       style="fill:#ff8a0b;fill-opacity:1;fill-rule:nonzero;stroke:none;stroke-width:7.14285707;stroke-linejoin:round;stroke-miterlimit:4;stroke-dasharray:none;stroke-opacity:1"
       d="m 348.94698,626.49249 c -51.12601,-51.32144 -92.95637,-93.5381 -92.95637,-93.8148 0,-1.04597 14.24864,-23.76818 24.04333,-38.34173 C 293.07644,474.93 317.90483,441.83988 332.57702,424.309 420.08779,319.74784 522.67923,245.90096 639.48103,203.39486 l 9.97988,-3.63184 63.23169,63.3168 63.23168,63.31682 -7.06406,18.5351 c -48.36194,126.8947 -132.06979,234.81836 -252.01798,324.92408 -21.315,16.01194 -72.05079,50.40586 -73.91905,50.10993 -0.5609,-0.0888 -42.85019,-42.15181 -93.97621,-93.47326 z"
       id="path4185"
       inkscape:connector-curvature="0" />
    <circle
       style="fill:#f2ed38;fill-opacity:1;fill-rule:nonzero;stroke:#ffbb49;stroke-width:7.11798859;stroke-miterlimit:4;stroke-dasharray:none;stroke-opacity:0"
       id="path4250"
       cx="687.27209"
       cy="-176.63828"
       r="69.534874"
       transform="matrix(0.70710678,0.70710678,-0.70710678,0.70710678,0,0)" />
    <path
       style="fill:#f64105;fill-opacity:1;fill-rule:nonzero;stroke:none;stroke-width:5;stroke-linejoin:round;stroke-miterlimit:4;stroke-dasharray:none;stroke-opacity:1"
       d="m 255.65346,530.674 c -0.21347,-0.19714 -3.56369,-2.13643 -7.44494,-4.30955 -25.4791,-14.2658 -60.42204,-31.08866 -93.14994,-44.84592 -8.25602,-3.47043 -27.36484,-11.19601 -28.61545,-11.56905 -0.35198,-0.10499 1.76184,-1.82129 5.24221,-4.25637 60.08891,-42.04184 125.16465,-63.91246 185.88157,-62.47098 5.65554,0.13428 12.87667,0.52074 16.04697,0.85884 5.85092,0.62394 14.99471,2.03933 15.3352,2.37375 0.10262,0.10079 -0.97355,1.39346 -2.39147,2.8726 -4.3718,4.56054 -13.98771,15.70472 -21.78915,25.25215 -20.58715,25.19465 -40.07865,52.53868 -62.66133,87.90569 -2.91334,4.56258 -5.46989,8.35223 -5.68125,8.42143 -0.21137,0.0693 -0.55896,-0.0355 -0.77242,-0.23259 z"
       id="path4241"
       inkscape:connector-curvature="0" />
    <path
       style="fill:#f64105;fill-opacity:1;fill-rule:nonzero;stroke:none;stroke-width:5;stroke-linejoin:round;stroke-miterlimit:4;stroke-dasharray:none;stroke-opacity:1"
       d="m 323.95536,650.89785 c -47.96555,-47.97357 -87.23841,-87.25856 -87.273,-87.29998 -0.0346,-0.0414 5.54343,-5.68043 12.39559,-12.53114 l 12.45848,-12.45581 87.28628,87.28667 87.2863,87.28666 -12.47178,12.46913 -12.47176,12.46912 -87.21011,-87.22465 z"
       id="path4243"
       inkscape:connector-curvature="0" />
    <path
       style="fill:#f64105;fill-opacity:1;fill-rule:nonzero;stroke:none;stroke-width:5;stroke-linejoin:round;stroke-miterlimit:4;stroke-dasharray:none;stroke-opacity:1"
       d="M 503.64519,847.38693 C 483.2266,801.30024 461.39811,755.4027 445.13617,724.36332 c -1.45864,-2.78414 -2.61977,-5.09002 -2.58029,-5.12419 0.0395,-0.0341 1.33191,-0.85383 2.87207,-1.82145 36.2752,-22.79027 65.29169,-43.25881 94.42365,-66.6074 9.86849,-7.90937 19.14955,-15.61867 25.58813,-21.25473 l 3.00029,-2.62633 0.24332,0.94314 c 0.49324,1.91186 1.67337,8.85708 2.14852,12.64428 3.46152,27.59063 1.44937,58.32984 -5.82642,89.00873 -8.53665,35.99542 -24.13553,71.33494 -46.5922,105.55539 -3.67982,5.60748 -12.10905,17.6567 -12.35202,17.6567 -0.025,0 -1.11224,-2.40774 -2.41603,-5.35053 z"
       id="path4245"
       inkscape:connector-curvature="0" />
    <path
       style="fill:#f64105;fill-opacity:1;fill-rule:nonzero;stroke:none;stroke-width:5;stroke-linejoin:round;stroke-miterlimit:4;stroke-dasharray:none;stroke-opacity:0"
       d="m 710.1779,264.42958 -64.56097,-64.56196 7.1019,-2.28208 c 48.78884,-15.6775 95.83592,-24.93528 138.60696,-27.27466 4.16195,-0.22763 8.93064,-0.41399 10.5971,-0.41412 l 3.02996,-2.4e-4 -0.25963,9.10105 c -1.02038,35.76978 -9.31321,82.79755 -22.41406,127.10792 -2.43468,8.23469 -6.93887,22.25018 -7.25956,22.58925 -0.15438,0.16323 -29.33316,-28.75609 -64.8417,-64.26516 z"
       id="path4276"
       inkscape:connector-curvature="0" />
    <circle
       style="opacity:1;fill:#7fe9be;fill-opacity:0"
       id="path4451-3"
       cx="517.37665"
       cy="476.0722"
       r="455.71429" />
  </g>
  <g
     inkscape:groupmode="layer"
     id="layer8"
     inkscape:label="allShadow">
    <path
       style="opacity:0.09100001;fill:#000000;fill-opacity:1;fill-rule:evenodd;stroke:#000000;stroke-width:1px;stroke-linecap:butt;stroke-linejoin:miter;stroke-opacity:1"
       d="M 804.92203,170.99923 216.26058,760.65031 824.28447,1284.863 1383.909,692.91363 Z"
       id="path5240"
       inkscape:connector-curvature="0"
       sodipodi:nodetypes="ccccc"
       clip-path="url(#clipPath5269)" />
  </g>
  <g
     inkscape:groupmode="layer"
     id="layer7"
     inkscape:label="fade">
    <rect
       style="opacity:0.165;fill:#000000;fill-opacity:1"
       id="rect4456"
       width="648.51794"
       height="1256.6298"
       x="688.91663"
       y="-718.12012"
       transform="matrix(0.70487142,0.70933509,-0.70933509,0.70487142,0,0)"
       clip-path="url(#clipPath4628)" />
  </g>
</svg>
