<?xml version="1.0" encoding="UTF-8" standalone="no"?>
<!-- Created with Inkscape (http://www.inkscape.org/) -->

<svg
   xmlns:dc="http://purl.org/dc/elements/1.1/"
   xmlns:cc="http://creativecommons.org/ns#"
   xmlns:rdf="http://www.w3.org/1999/02/22-rdf-syntax-ns#"
   xmlns:svg="http://www.w3.org/2000/svg"
   xmlns="http://www.w3.org/2000/svg"
   xmlns:sodipodi="http://sodipodi.sourceforge.net/DTD/sodipodi-0.dtd"
   xmlns:inkscape="http://www.inkscape.org/namespaces/inkscape"
   width="1000"
   height="1000"
   viewBox="0 0 1000 1000"
   id="svg2"
   version="1.1"
   inkscape:version="0.91 r13725"
   sodipodi:docname="planetRed.svg"
   inkscape:export-filename="/home/keidaroo/デスクトップ/keidaroo_pages/pictures/png/planetRed.png"
   inkscape:export-xdpi="90"
   inkscape:export-ydpi="90">
  <defs
     id="defs4">
    <clipPath
       clipPathUnits="userSpaceOnUse"
       id="clipPath4210">
      <circle
         r="1250.0001"
         cy="56.647903"
         cx="1667.1428"
         id="circle4212"
         style="fill:#e15449;fill-opacity:1;stroke-width:7.11798859;stroke-miterlimit:4;stroke-dasharray:none" />
    </clipPath>
    <clipPath
       clipPathUnits="userSpaceOnUse"
       id="clipPath4216">
      <circle
         r="1250.0001"
         cy="56.647903"
         cx="1667.1428"
         id="circle4218"
         style="fill:#e15449;fill-opacity:1;stroke-width:7.11798859;stroke-miterlimit:4;stroke-dasharray:none" />
    </clipPath>
    <clipPath
       clipPathUnits="userSpaceOnUse"
       id="clipPath4364">
      <circle
         r="4550"
         cy="-7797.6377"
         cx="-5950"
         id="circle4366"
         style="fill:#127800;fill-opacity:0.47750866;stroke-width:7.11798859;stroke-miterlimit:4;stroke-dasharray:none" />
    </clipPath>
    <clipPath
       clipPathUnits="userSpaceOnUse"
       id="clipPath4405">
      <circle
         r="4550.0005"
         cy="-6929.0161"
         cx="-6039.5508"
         id="circle4407"
         style="fill:#ff80ab;fill-opacity:0.47843137;stroke-width:7.11798859;stroke-miterlimit:4;stroke-dasharray:none" />
    </clipPath>
  </defs>
  <sodipodi:namedview
     id="base"
     pagecolor="#ffffff"
     bordercolor="#666666"
     borderopacity="1.0"
     inkscape:pageopacity="0.0"
     inkscape:pageshadow="2"
     inkscape:zoom="0.45254834"
     inkscape:cx="382.02648"
     inkscape:cy="603.35506"
     inkscape:document-units="px"
     inkscape:current-layer="layer1"
     showgrid="false"
     units="px"
     showborder="true"
     inkscape:window-width="1246"
     inkscape:window-height="1027"
     inkscape:window-x="65"
     inkscape:window-y="24"
     inkscape:window-maximized="0" />
  <metadata
     id="metadata7">
    <rdf:RDF>
      <cc:Work
         rdf:about="">
        <dc:format>image/svg+xml</dc:format>
        <dc:type
           rdf:resource="http://purl.org/dc/dcmitype/StillImage" />
        <dc:title></dc:title>
      </cc:Work>
    </rdf:RDF>
  </metadata>
  <g
     inkscape:label="レイヤー 1"
     inkscape:groupmode="layer"
     id="layer1"
     transform="translate(0,-52.362161)">
    <circle
       style="fill:#ffa0d6;fill-opacity:0.98431373;stroke-width:7.11798859;stroke-miterlimit:4;stroke-dasharray:none"
       id="path4319"
       cx="-757.99829"
       cy="68.95694"
       r="439.94189"
       transform="matrix(-0.58974864,-0.80758686,0.80758686,-0.58974864,0,0)" />
    <path
       transform="matrix(-0.0570231,-0.07808599,0.07808599,-0.0570231,699.38238,-295.23611)"
       clip-path="url(#clipPath4405)"
       sodipodi:nodetypes="ssccsssscssscccccssssccssscssccssscssccssscsscssssscsssccsssscsssccsssscss"
       inkscape:connector-curvature="0"
       id="path4387"
       d="m -9030.2015,-9175.5765 c -168.7418,0 -304.5879,135.8461 -304.5879,304.5878 l 0,1770.2998 -0.6972,0 0,393.4265 c 0,168.7417 -135.8461,304.5878 -304.5874,304.5878 -168.742,0 -304.588,-135.8461 -304.588,-304.5878 l 0,-1098.1992 c 0,-6.8883 0.249,-13.7157 0.695,-20.4873 l 0,-242.7514 c 0,-168.7417 -135.846,-304.5877 -304.587,-304.5877 -168.742,0 -304.588,135.846 -304.588,304.5877 l 0,968.0114 -4.229,0 0,6469.56479 9130.7102,0 0,-5955.25649 c 6.625,-25.0536 10.1712,-51.3846 10.1712,-78.5777 l 0,-1296.0535 c 0,-168.7417 -135.8461,-304.5878 -304.5878,-304.5878 -168.7416,0 -304.5877,135.8461 -304.5877,304.5878 l 0,860.3229 -0.6953,0 0,588.0255 c 0,168.7417 -135.846,304.5877 -304.5877,304.5877 -168.7416,0 -304.5877,-135.846 -304.5877,-304.5877 l 0,-2116.7135 c -11.5635,-159.7482 -165.7848,-285.4294 -303.8925,-285.4294 -143.5841,0 -304.5877,135.846 -304.5877,304.5877 l 0,537.2579 -0.6953,0 0,2151.5081 c 0,168.7417 -135.846,304.5877 -304.5878,304.5877 -168.7416,0 -304.5877,-135.846 -304.5877,-304.5877 l 0,-1533.5714 c -10.4737,-159.1127 -142.0392,-284.1003 -303.8925,-284.1003 -168.7416,0 -304.5877,135.846 -304.5877,304.5878 l 0,333.8476 -0.6953,0 0,435.7306 c 0,168.7417 -135.8461,304.5877 -304.5877,304.5877 -168.7417,0 -304.5877,-135.846 -304.5877,-304.5877 l 0,-1220.8171 c -10.4738,-159.1126 -142.0392,-284.1003 -303.8925,-284.1003 -168.7417,0 -304.5877,135.8461 -304.5877,304.5878 l 0,286.2759 c 0.1754,4.2646 0.2862,8.5468 0.2862,12.8561 l 0,1919.2288 c 0,168.7418 -135.8461,304.5878 -304.5877,304.5878 -168.7417,0 -304.5877,-135.846 -304.5877,-304.5878 l 0,-2555.6249 c 0,-6.8884 0.2495,-13.7156 0.6952,-20.4874 l 0,-326.5066 c 0,-168.7417 -135.846,-304.5877 -304.5878,-304.5877 -168.7416,0 -304.5877,135.846 -304.5877,304.5877 l 0,1448.8571 -0.6953,0 0,503.4175 c 0,168.7417 -135.846,304.5877 -304.5877,304.5877 -168.7416,0 -304.5878,-135.846 -304.5878,-304.5877 l 0,-956.918 c 0,-6.8883 0.2495,-13.7157 0.6953,-20.4874 l 0,-218.8202 c 0,-168.7418 -135.846,-304.5879 -304.5877,-304.5879 -168.7416,0 -304.5878,135.8461 -304.5878,304.5879 l 0,692.8081 -0.6952,0 0,1178.9492 c 0,168.7417 -135.8461,304.5877 -304.5877,304.5877 -168.7417,0 -304.5878,-135.846 -304.5878,-304.5877 l 0,-1536.7278 c 0,-6.8884 0.2495,-13.7157 0.6953,-20.4875 l 0,-1392.0337 c 0,-168.7417 -135.8461,-304.5878 -304.5877,-304.5878 z"
       style="fill:#ff80ab;fill-opacity:0.99215686;stroke-width:7.11798859;stroke-miterlimit:4;stroke-dasharray:none" />
    <path
       style="fill:#d57b9b;fill-opacity:1;stroke-width:7.11798859;stroke-miterlimit:4;stroke-dasharray:none"
       d="m -9030.2015,-9175.5765 c -168.7418,0 -304.5879,135.8461 -304.5879,304.5878 l 0,1770.2998 -0.6972,0 0,393.4265 c 0,168.7417 -135.8461,304.5878 -304.5874,304.5878 -168.742,0 -304.588,-135.8461 -304.588,-304.5878 l 0,-1098.1992 c 0,-6.8883 0.249,-13.7157 0.695,-20.4873 l 0,-242.7514 c 0,-168.7417 -135.846,-304.5877 -304.587,-304.5877 -168.742,0 -304.588,135.846 -304.588,304.5877 l 0,968.0114 -4.229,0 0,6469.56479 9130.7102,0 0,-5955.25649 c 6.625,-25.0536 10.1712,-51.3846 10.1712,-78.5777 l 0,-1296.0535 c 0,-168.7417 -135.8461,-304.5878 -304.5878,-304.5878 -168.7416,0 -304.5877,135.8461 -304.5877,304.5878 l 0,860.3229 -0.6953,0 0,588.0255 c 0,168.7417 -135.846,304.5877 -304.5877,304.5877 -168.7416,0 -304.5877,-135.846 -304.5877,-304.5877 l 0,-2116.7135 c -11.5635,-159.7482 -165.7848,-285.4294 -303.8925,-285.4294 -143.5841,0 -304.5877,135.846 -304.5877,304.5877 l 0,537.2579 -0.6953,0 0,2151.5081 c 0,168.7417 -135.846,304.5877 -304.5878,304.5877 -168.7416,0 -304.5877,-135.846 -304.5877,-304.5877 l 0,-1533.5714 c -10.4737,-159.1127 -142.0392,-284.1003 -303.8925,-284.1003 -168.7416,0 -304.5877,135.846 -304.5877,304.5878 l 0,333.8476 -0.6953,0 0,435.7306 c 0,168.7417 -135.8461,304.5877 -304.5877,304.5877 -168.7417,0 -304.5877,-135.846 -304.5877,-304.5877 l 0,-1220.8171 c -10.4738,-159.1126 -142.0392,-284.1003 -303.8925,-284.1003 -168.7417,0 -304.5877,135.8461 -304.5877,304.5878 l 0,286.2759 c 0.1754,4.2646 0.2862,8.5468 0.2862,12.8561 l 0,1919.2288 c 0,168.7418 -135.8461,304.5878 -304.5877,304.5878 -168.7417,0 -304.5877,-135.846 -304.5877,-304.5878 l 0,-2555.6249 c 0,-6.8884 0.2495,-13.7156 0.6952,-20.4874 l 0,-326.5066 c 0,-168.7417 -135.846,-304.5877 -304.5878,-304.5877 -168.7416,0 -304.5877,135.846 -304.5877,304.5877 l 0,1448.8571 -0.6953,0 0,503.4175 c 0,168.7417 -135.846,304.5877 -304.5877,304.5877 -168.7416,0 -304.5878,-135.846 -304.5878,-304.5877 l 0,-956.918 c 0,-6.8883 0.2495,-13.7157 0.6953,-20.4874 l 0,-218.8202 c 0,-168.7418 -135.846,-304.5879 -304.5877,-304.5879 -168.7416,0 -304.5878,135.8461 -304.5878,304.5879 l 0,692.8081 -0.6952,0 0,1178.9492 c 0,168.7417 -135.8461,304.5877 -304.5877,304.5877 -168.7417,0 -304.5878,-135.846 -304.5878,-304.5877 l 0,-1536.7278 c 0,-6.8884 0.2495,-13.7157 0.6953,-20.4875 l 0,-1392.0337 c 0,-168.7417 -135.8461,-304.5878 -304.5877,-304.5878 z"
       id="rect4264"
       inkscape:connector-curvature="0"
       sodipodi:nodetypes="ssccsssscssscccccssssccssscssccssscssccssscsscssssscsssccsssscsssccsssscss"
       clip-path="url(#clipPath4364)"
       transform="matrix(-0.0570231,-0.07808599,0.07808599,-0.0570231,772.31617,-337.77515)" />
  </g>
</svg>
