<?xml version="1.0" encoding="UTF-8" standalone="no"?>
<!-- Created with Inkscape (http://www.inkscape.org/) -->

<svg
   xmlns:dc="http://purl.org/dc/elements/1.1/"
   xmlns:cc="http://creativecommons.org/ns#"
   xmlns:rdf="http://www.w3.org/1999/02/22-rdf-syntax-ns#"
   xmlns:svg="http://www.w3.org/2000/svg"
   xmlns="http://www.w3.org/2000/svg"
   xmlns:sodipodi="http://sodipodi.sourceforge.net/DTD/sodipodi-0.dtd"
   xmlns:inkscape="http://www.inkscape.org/namespaces/inkscape"
   width="1000"
   height="1000"
   viewBox="0 0 1000 1000"
   id="svg2"
   version="1.1"
   inkscape:version="0.91 r13725"
   sodipodi:docname="planetRed.svg"
   inkscape:export-filename="/home/keidaroo/デスクトップ/keidaroo_pages/pictures/png/planetRed.png"
   inkscape:export-xdpi="90"
   inkscape:export-ydpi="90">
  <defs
     id="defs4">
    <clipPath
       clipPathUnits="userSpaceOnUse"
       id="clipPath4210">
      <circle
         r="1250.0001"
         cy="56.647903"
         cx="1667.1428"
         id="circle4212"
         style="fill:#e15449;fill-opacity:1;stroke-width:7.11798859;stroke-miterlimit:4;stroke-dasharray:none" />
    </clipPath>
    <clipPath
       clipPathUnits="userSpaceOnUse"
       id="clipPath4216">
      <circle
         r="1250.0001"
         cy="56.647903"
         cx="1667.1428"
         id="circle4218"
         style="fill:#e15449;fill-opacity:1;stroke-width:7.11798859;stroke-miterlimit:4;stroke-dasharray:none" />
    </clipPath>
  </defs>
  <sodipodi:namedview
     id="base"
     pagecolor="#ffffff"
     bordercolor="#666666"
     borderopacity="1.0"
     inkscape:pageopacity="0.0"
     inkscape:pageshadow="2"
     inkscape:zoom="0.49497475"
     inkscape:cx="560.61433"
     inkscape:cy="370.88935"
     inkscape:document-units="px"
     inkscape:current-layer="layer1"
     showgrid="false"
     units="px"
     showborder="true"
     inkscape:window-width="1246"
     inkscape:window-height="1027"
     inkscape:window-x="75"
     inkscape:window-y="24"
     inkscape:window-maximized="0" />
  <metadata
     id="metadata7">
    <rdf:RDF>
      <cc:Work
         rdf:about="">
        <dc:format>image/svg+xml</dc:format>
        <dc:type
           rdf:resource="http://purl.org/dc/dcmitype/StillImage" />
        <dc:title />
      </cc:Work>
    </rdf:RDF>
  </metadata>
  <g
     inkscape:label="レイヤー 1"
     inkscape:groupmode="layer"
     id="layer1"
     transform="translate(0,-52.362161)">
    <circle
       style="fill:#ff786d;fill-opacity:1;stroke-width:7.11798859;stroke-miterlimit:4;stroke-dasharray:none"
       id="path4136"
       cx="-750.41681"
       cy="113.76685"
       r="415.71442"
       transform="matrix(-0.55757881,-0.83012401,0.83012401,-0.55757881,0,0)" />
    <path
       inkscape:connector-curvature="0"
       id="path4206"
       d="m 890.45644,-772.86859 c -56.11469,0 -101.28903,35.76593 -101.28903,80.19189 l 0,517.9185 c 0.80921,3.9477 1.23723,7.99938 1.23723,12.1336 l 0,545.60892 c 0,41.32593 -42.02196,74.5961 -94.22095,74.5961 -52.199,0 -94.22278,-33.27018 -94.22278,-74.5961 l 0,-545.60892 c 0,-2.90574 0.21508,-5.77043 0.61953,-8.58772 l 0,-237.94583 c 0,-44.42596 -45.17615,-80.19045 -101.29084,-80.19045 -56.11471,0 -101.28904,35.76449 -101.28904,80.19045 l 0,287.18416 0,1033.51892 0,774.32787 2539.93344,0 0,-1125.55287 c 2.4552,-6.93452 3.77,-14.25446 3.77,-21.82632 l 0,-825.29021 c 0,-44.42597 -45.1761,-80.19189 -101.2909,-80.19189 -48.2624,0 -88.43,26.45661 -98.7271,62.12495 l 0,780.68545 c 0,44.42592 -42.2043,80.19046 -94.6272,80.19046 -52.4229,0 -94.6255,-35.76454 -94.6255,-80.19046 l 0,-641.37929 c -7.8332,-38.17096 -49.4623,-67.13217 -99.9571,-67.13217 -56.1147,0 -101.2909,35.76449 -101.2909,80.19044 l 0,30.52512 -1.3318,0 0,735.07812 c 0,44.42594 -42.502,80.19191 -95.2943,80.19191 -52.7921,0 -95.2925,-35.76597 -95.2925,-80.19191 l 0,-1083.80731 c -9.6926,-36.31631 -50.2398,-63.41173 -99.0805,-63.41173 -50.4949,0 -92.1253,28.96121 -99.9589,67.13216 l 0,966.67945 c 0,44.42599 -41.9045,80.1919 -93.9585,80.1919 -52.0536,0 -93.9604,-35.76591 -93.9604,-80.1919 l 0,-621.67069 0,-170.79204 c 0,-44.42596 -45.1762,-80.19044 -101.2908,-80.19044 -56.1146,0 -101.2892,35.76448 -101.2892,80.19044 l 0,160.18904 0,10.603 0,502.14094 c 0,40.9186 -41.311,73.86039 -92.6265,73.86039 -51.3154,0 -92.6283,-32.94179 -92.6283,-73.86039 l 0,-512.74394 c 0,-4.29344 0.4602,-8.4976 1.3337,-12.58657 l 0,-371.43259 c 2e-4,-44.42596 -45.1762,-80.19189 -101.2908,-80.19189 -56.1147,0 -101.289,35.76593 -101.289,80.19189 l 0,169.42301 c 0.8715,4.15978 1.332,8.43292 1.332,12.7943 l 0,898.77839 c 0,42.67232 -43.3915,77.02543 -97.2914,77.02543 -53.8995,0 -97.29128,-34.35311 -97.29128,-77.02543 l 0,-686.37354 -0.22946,0 0,-570.70271 c 0,-44.42596 -45.17621,-80.19189 -101.29092,-80.19189 z"
       style="fill:#e53935;fill-opacity:0.51372552;stroke-width:7.11798859;stroke-miterlimit:4;stroke-dasharray:none"
       clip-path="url(#clipPath4210)"
       transform="matrix(-0.18543482,-0.27607559,0.27607559,-0.18543482,806.3643,1030.267)" />
    <path
       style="fill:#8b0008;fill-opacity:0.37024224;stroke-width:7.11798859;stroke-miterlimit:4;stroke-dasharray:none"
       d="m 890.45644,-521.44002 c -56.11469,0 -101.28903,35.76593 -101.28903,80.19189 l 0,517.918498 c 0.80921,3.947701 1.23723,7.999388 1.23723,12.133608 l 0,545.608914 c 0,41.32593 -42.02196,74.5961 -94.22095,74.5961 -52.199,0 -94.22278,-33.27018 -94.22278,-74.5961 l 0,-545.608914 c 0,-2.905748 0.21508,-5.77043 0.61953,-8.587729 l 0,-237.945827 c 0,-44.42596 -45.17615,-80.19045 -101.29084,-80.19045 -56.11471,0 -101.28904,35.76449 -101.28904,80.19045 l 0,287.18416 0,1033.51892 0,774.3279 2539.93344,0 0,-1125.5529 c 2.4552,-6.93452 3.77,-14.25446 3.77,-21.82632 l 0,-825.290213 c 0,-44.425965 -45.1761,-80.191887 -101.2909,-80.191887 -48.2624,0 -88.43,26.456616 -98.7271,62.124947 l 0,780.685453 c 0,44.42592 -42.2043,80.19046 -94.6272,80.19046 -52.4229,0 -94.6255,-35.76454 -94.6255,-80.19046 l 0,-641.379288 c -7.8332,-38.170956 -49.4623,-67.132174 -99.9571,-67.132174 -56.1147,0 -101.2909,35.764491 -101.2909,80.190447 l 0,30.525115 -1.3318,0 0,735.07812 c 0,44.42594 -42.502,80.19191 -95.2943,80.19191 -52.7921,0 -95.2925,-35.76597 -95.2925,-80.19191 l 0,-1083.80731 c -9.6926,-36.31631 -50.2398,-63.41173 -99.0805,-63.41173 -50.4949,0 -92.1253,28.96121 -99.9589,67.13216 l 0,966.67945 c 0,44.42599 -41.9045,80.1919 -93.9585,80.1919 -52.0536,0 -93.9604,-35.76591 -93.9604,-80.1919 l 0,-621.67069 0,-170.792037 c 0,-44.425961 -45.1762,-80.190443 -101.2908,-80.190443 -56.1146,0 -101.2892,35.764482 -101.2892,80.190443 l 0,160.189037 0,10.603 0,502.14094 c 0,40.9186 -41.311,73.86039 -92.6265,73.86039 -51.3154,0 -92.6283,-32.94179 -92.6283,-73.86039 l 0,-512.74394 c 0,-4.29344 0.4602,-8.4976 1.3337,-12.58657 l 0,-371.43259 c 2e-4,-44.42596 -45.1762,-80.19189 -101.2908,-80.19189 -56.1147,0 -101.289,35.76593 -101.289,80.19189 l 0,169.423016 c 0.8715,4.159772 1.332,8.432913 1.332,12.794293 l 0,898.778391 c 0,42.67232 -43.3915,77.02543 -97.2914,77.02543 -53.8995,0 -97.29128,-34.35311 -97.29128,-77.02543 l 0,-686.37354 -0.22946,0 0,-570.70271 c 0,-44.42596 -45.17621,-80.19189 -101.29092,-80.19189 z"
       id="rect4138"
       inkscape:connector-curvature="0"
       clip-path="url(#clipPath4216)"
       transform="matrix(-0.18543482,-0.27607559,0.27607559,-0.18543482,806.3643,1030.267)"
       inkscape:export-filename="/home/keidaroo/デスクトップ/keidaroo_pages/pictures/png/planetRed.png"
       inkscape:export-xdpi="90"
       inkscape:export-ydpi="90" />
  </g>
</svg>
