<?xml version="1.0" encoding="UTF-8" standalone="no"?>
<!-- Created with Inkscape (http://www.inkscape.org/) -->

<svg
   xmlns:dc="http://purl.org/dc/elements/1.1/"
   xmlns:cc="http://creativecommons.org/ns#"
   xmlns:rdf="http://www.w3.org/1999/02/22-rdf-syntax-ns#"
   xmlns:svg="http://www.w3.org/2000/svg"
   xmlns="http://www.w3.org/2000/svg"
   xmlns:sodipodi="http://sodipodi.sourceforge.net/DTD/sodipodi-0.dtd"
   xmlns:inkscape="http://www.inkscape.org/namespaces/inkscape"
   width="2000"
   height="2000"
   viewBox="0 0 2000 2000"
   id="svg2"
   version="1.1"
   inkscape:version="0.91 r13725"
   sodipodi:docname="starSkyAlpha1.svg"
   inkscape:export-filename="/home/keidaroo/デスクトップ/keidaroo_pages/pictures/starSky.png"
   inkscape:export-xdpi="72.720001"
   inkscape:export-ydpi="72.720001">
  <defs
     id="defs4" />
  <sodipodi:namedview
     id="base"
     pagecolor="#2d2d2d"
     bordercolor="#666666"
     borderopacity="1.0"
     inkscape:pageopacity="0"
     inkscape:pageshadow="2"
     inkscape:zoom="0.25"
     inkscape:cx="1491.1708"
     inkscape:cy="996.97709"
     inkscape:document-units="px"
     inkscape:current-layer="layer1"
     showgrid="false"
     showborder="true"
     units="px"
     inkscape:window-width="2495"
     inkscape:window-height="1056"
     inkscape:window-x="65"
     inkscape:window-y="24"
     inkscape:window-maximized="1" />
  <metadata
     id="metadata7">
    <rdf:RDF>
      <cc:Work
         rdf:about="">
        <dc:format>image/svg+xml</dc:format>
        <dc:type
           rdf:resource="http://purl.org/dc/dcmitype/StillImage" />
        <dc:title />
      </cc:Work>
    </rdf:RDF>
  </metadata>
  <g
     inkscape:label="レイヤー 1"
     inkscape:groupmode="layer"
     id="layer1"
     transform="translate(0,947.63784)">
    <ellipse
       style="opacity:0.46200005;fill:#ffffff;fill-opacity:1;stroke:none;stroke-width:1.20000005;stroke-miterlimit:4;stroke-dasharray:none;stroke-dashoffset:0;stroke-opacity:1"
       id="circle4156"
       cx="-503.62045"
       cy="-1697.9111"
       transform="matrix(0.02366706,0.9997199,-0.99972466,0.02346512,0,0)"
       rx="3.0308964"
       ry="3.0439034" />
    <ellipse
       transform="matrix(0.02366706,0.9997199,-0.99972466,0.02346512,0,0)"
       cy="-268.30927"
       cx="-663.04303"
       id="circle4149"
       style="opacity:0.46200005;fill:#ffffff;fill-opacity:1;stroke:none;stroke-width:1.20000005;stroke-miterlimit:4;stroke-dasharray:none;stroke-dashoffset:0;stroke-opacity:1"
       rx="3.0308964"
       ry="3.0439034" />
    <ellipse
       transform="matrix(0.02366706,0.9997199,-0.99972466,0.02346512,0,0)"
       cy="-715.44275"
       cx="941.07184"
       id="circle4153"
       style="opacity:0.46200005;fill:#ffffff;fill-opacity:1;stroke:none;stroke-width:1.20000005;stroke-miterlimit:4;stroke-dasharray:none;stroke-dashoffset:0;stroke-opacity:1"
       rx="3.0308964"
       ry="3.0439034" />
    <ellipse
       transform="matrix(0.02366706,0.9997199,-0.99972466,0.02346512,0,0)"
       cy="-1980.3958"
       cx="-575.14502"
       id="circle4161"
       style="opacity:0.46200005;fill:#ffffff;fill-opacity:1;stroke:none;stroke-width:1.20000005;stroke-miterlimit:4;stroke-dasharray:none;stroke-dashoffset:0;stroke-opacity:1"
       rx="3.0308964"
       ry="3.0439034" />
    <ellipse
       transform="matrix(0.02366706,0.9997199,-0.99972466,0.02346512,0,0)"
       style="opacity:0.46200005;fill:#ffffff;fill-opacity:1;stroke:none;stroke-width:1.20000005;stroke-miterlimit:4;stroke-dasharray:none;stroke-dashoffset:0;stroke-opacity:1"
       id="circle4163"
       cx="878.83527"
       cy="-1588.2917"
       rx="3.0308964"
       ry="3.0439034" />
    <ellipse
       transform="matrix(0.02366706,0.9997199,-0.99972466,0.02346512,0,0)"
       style="opacity:0.46200005;fill:#ffffff;fill-opacity:1;stroke:none;stroke-width:1.20000005;stroke-miterlimit:4;stroke-dasharray:none;stroke-dashoffset:0;stroke-opacity:1"
       id="circle4175"
       cx="766.69971"
       cy="-500.3714"
       rx="3.0308964"
       ry="3.0439034" />
    <ellipse
       transform="matrix(0.02366706,0.9997199,-0.99972466,0.02346512,0,0)"
       cy="-1363.566"
       cx="-333.44662"
       id="circle4181"
       style="opacity:0.46200005;fill:#ffffff;fill-opacity:1;stroke:none;stroke-width:1.20000005;stroke-miterlimit:4;stroke-dasharray:none;stroke-dashoffset:0;stroke-opacity:1"
       rx="3.0308964"
       ry="3.0439034" />
    <ellipse
       transform="matrix(0.02366706,0.9997199,-0.99972466,0.02346512,0,0)"
       cy="-159.15791"
       cx="886.89838"
       id="circle4209"
       style="opacity:0.46200005;fill:#ffffff;fill-opacity:1;stroke:none;stroke-width:1.20000005;stroke-miterlimit:4;stroke-dasharray:none;stroke-dashoffset:0;stroke-opacity:1"
       rx="3.0308964"
       ry="3.0439034" />
    <ellipse
       cy="-1350.9596"
       cx="-878.09253"
       id="circle4215"
       style="opacity:0.46200005;fill:#ffffff;fill-opacity:1;stroke:none;stroke-width:1.20000005;stroke-miterlimit:4;stroke-dasharray:none;stroke-dashoffset:0;stroke-opacity:1"
       transform="matrix(0.02366706,0.9997199,-0.99972466,0.02346512,0,0)"
       rx="3.0308964"
       ry="3.0439034" />
    <ellipse
       style="opacity:0.46200005;fill:#ffffff;fill-opacity:1;stroke:none;stroke-width:1.20000005;stroke-miterlimit:4;stroke-dasharray:none;stroke-dashoffset:0;stroke-opacity:1"
       id="circle4217"
       cx="-258.3067"
       cy="-1348.5492"
       transform="matrix(0.02366706,0.9997199,-0.99972466,0.02346512,0,0)"
       rx="3.0308964"
       ry="3.0439034" />
    <ellipse
       cy="-1522.4225"
       cx="-327.93704"
       id="circle4223"
       style="opacity:0.46200005;fill:#ffffff;fill-opacity:1;stroke:none;stroke-width:1.20000005;stroke-miterlimit:4;stroke-dasharray:none;stroke-dashoffset:0;stroke-opacity:1"
       transform="matrix(0.02366706,0.9997199,-0.99972466,0.02346512,0,0)"
       rx="3.0308964"
       ry="3.0439034" />
    <ellipse
       transform="matrix(0.02366706,0.9997199,-0.99972466,0.02346512,0,0)"
       cy="-188.21964"
       cx="-416.06"
       id="circle4257"
       style="opacity:0.46200005;fill:#ffffff;fill-opacity:1;stroke:none;stroke-width:1.20000005;stroke-miterlimit:4;stroke-dasharray:none;stroke-dashoffset:0;stroke-opacity:1"
       rx="3.0308964"
       ry="3.0439034" />
    <ellipse
       transform="matrix(0.02366706,0.9997199,-0.99972466,0.02346512,0,0)"
       cy="-750.50903"
       cx="395.71085"
       id="circle4273"
       style="opacity:0.46200005;fill:#ffffff;fill-opacity:1;stroke:none;stroke-width:1.20000005;stroke-miterlimit:4;stroke-dasharray:none;stroke-dashoffset:0;stroke-opacity:1"
       rx="3.0308964"
       ry="3.0439034" />
    <ellipse
       style="opacity:0.46200005;fill:#ffffff;fill-opacity:1;stroke:none;stroke-width:1.20000005;stroke-miterlimit:4;stroke-dasharray:none;stroke-dashoffset:0;stroke-opacity:1"
       id="circle4277"
       cx="-620.53827"
       cy="-1544.2061"
       transform="matrix(0.02366706,0.9997199,-0.99972466,0.02346512,0,0)"
       rx="3.0308964"
       ry="3.0439034" />
    <ellipse
       cy="-1208.313"
       cx="82.659256"
       id="circle4279"
       style="opacity:0.46200005;fill:#ffffff;fill-opacity:1;stroke:none;stroke-width:1.20000005;stroke-miterlimit:4;stroke-dasharray:none;stroke-dashoffset:0;stroke-opacity:1"
       transform="matrix(0.02366706,0.9997199,-0.99972466,0.02346512,0,0)"
       rx="3.0308964"
       ry="3.0439034" />
    <ellipse
       style="opacity:0.46200005;fill:#ffffff;fill-opacity:1;stroke:none;stroke-width:1.20000005;stroke-miterlimit:4;stroke-dasharray:none;stroke-dashoffset:0;stroke-opacity:1"
       id="circle4289"
       cx="-877.72845"
       cy="-1055.5352"
       transform="matrix(0.02366706,0.9997199,-0.99972466,0.02346512,0,0)"
       rx="3.0308964"
       ry="3.0439034" />
    <ellipse
       cy="-1059.5619"
       cx="-454.65875"
       id="circle4291"
       style="opacity:0.46200005;fill:#ffffff;fill-opacity:1;stroke:none;stroke-width:1.20000005;stroke-miterlimit:4;stroke-dasharray:none;stroke-dashoffset:0;stroke-opacity:1"
       transform="matrix(0.02366706,0.9997199,-0.99972466,0.02346512,0,0)"
       rx="3.0308964"
       ry="3.0439034" />
    <ellipse
       cy="-630.15863"
       cx="-133.59282"
       id="circle4295"
       style="opacity:0.46200005;fill:#ffffff;fill-opacity:1;stroke:none;stroke-width:1.20000005;stroke-miterlimit:4;stroke-dasharray:none;stroke-dashoffset:0;stroke-opacity:1"
       transform="matrix(0.02366706,0.9997199,-0.99972466,0.02346512,0,0)"
       rx="3.0308964"
       ry="3.0439034" />
    <ellipse
       cy="-1000.5269"
       cx="-471.70822"
       id="circle4299"
       style="opacity:0.46200005;fill:#ffffff;fill-opacity:1;stroke:none;stroke-width:1.20000005;stroke-miterlimit:4;stroke-dasharray:none;stroke-dashoffset:0;stroke-opacity:1"
       transform="matrix(0.02366706,0.9997199,-0.99972466,0.02346512,0,0)"
       rx="3.0308964"
       ry="3.0439034" />
    <ellipse
       style="opacity:0.46200005;fill:#ffffff;fill-opacity:1;stroke:none;stroke-width:1.20000005;stroke-miterlimit:4;stroke-dasharray:none;stroke-dashoffset:0;stroke-opacity:1"
       id="circle4305"
       cx="-448.0015"
       cy="-739.95502"
       transform="matrix(0.02366706,0.9997199,-0.99972466,0.02346512,0,0)"
       rx="3.0308964"
       ry="3.0439034" />
    <ellipse
       transform="matrix(0.02366706,0.9997199,-0.99972466,0.02346512,0,0)"
       style="opacity:0.46200005;fill:#ffffff;fill-opacity:1;stroke:none;stroke-width:1.20000005;stroke-miterlimit:4;stroke-dasharray:none;stroke-dashoffset:0;stroke-opacity:1"
       id="circle4311"
       cx="255.77945"
       cy="-610.19226"
       rx="3.0308964"
       ry="3.0439034" />
    <ellipse
       transform="matrix(0.02366706,0.9997199,-0.99972466,0.02346512,0,0)"
       cy="-1958.342"
       cx="-214.73044"
       id="circle4317"
       style="opacity:0.46200005;fill:#ffffff;fill-opacity:1;stroke:none;stroke-width:1.20000005;stroke-miterlimit:4;stroke-dasharray:none;stroke-dashoffset:0;stroke-opacity:1"
       rx="3.0308964"
       ry="3.0439034" />
    <ellipse
       transform="matrix(0.02366706,0.9997199,-0.99972466,0.02346512,0,0)"
       cy="-1593.1915"
       cx="-271.00116"
       id="circle4325"
       style="opacity:0.46200005;fill:#ffffff;fill-opacity:1;stroke:none;stroke-width:1.20000005;stroke-miterlimit:4;stroke-dasharray:none;stroke-dashoffset:0;stroke-opacity:1"
       rx="3.0308964"
       ry="3.0439034" />
    <ellipse
       style="opacity:0.46200005;fill:#ffffff;fill-opacity:1;stroke:none;stroke-width:1.20000005;stroke-miterlimit:4;stroke-dasharray:none;stroke-dashoffset:0;stroke-opacity:1"
       id="circle4341"
       cx="-220.18159"
       cy="-258.45642"
       transform="matrix(0.02366706,0.9997199,-0.99972466,0.02346512,0,0)"
       rx="3.0308964"
       ry="3.0439034" />
    <ellipse
       style="opacity:0.46200005;fill:#ffffff;fill-opacity:1;stroke:none;stroke-width:1.20000005;stroke-miterlimit:4;stroke-dasharray:none;stroke-dashoffset:0;stroke-opacity:1"
       id="circle4353"
       cx="425.78714"
       cy="-1317.2992"
       transform="matrix(0.02366706,0.9997199,-0.99972466,0.02346512,0,0)"
       rx="3.0308964"
       ry="3.0439034" />
    <ellipse
       cy="-1238.5076"
       cx="-632.96484"
       id="circle4359"
       style="opacity:0.46200005;fill:#ffffff;fill-opacity:1;stroke:none;stroke-width:1.20000005;stroke-miterlimit:4;stroke-dasharray:none;stroke-dashoffset:0;stroke-opacity:1"
       transform="matrix(0.02366706,0.9997199,-0.99972466,0.02346512,0,0)"
       rx="3.0308964"
       ry="3.0439034" />
    <ellipse
       cy="-831.3075"
       cx="936.70184"
       id="circle4367"
       style="opacity:0.46200005;fill:#ffffff;fill-opacity:1;stroke:none;stroke-width:1.20000005;stroke-miterlimit:4;stroke-dasharray:none;stroke-dashoffset:0;stroke-opacity:1"
       transform="matrix(0.02366706,0.9997199,-0.99972466,0.02346512,0,0)"
       rx="3.0308964"
       ry="3.0439034" />
    <ellipse
       style="opacity:0.46200005;fill:#ffffff;fill-opacity:1;stroke:none;stroke-width:1.20000005;stroke-miterlimit:4;stroke-dasharray:none;stroke-dashoffset:0;stroke-opacity:1"
       id="circle4369"
       cx="922.74475"
       cy="-1634.5938"
       transform="matrix(0.02366706,0.9997199,-0.99972466,0.02346512,0,0)"
       rx="3.0308964"
       ry="3.0439034" />
    <ellipse
       transform="matrix(0.02366706,0.9997199,-0.99972466,0.02346512,0,0)"
       cy="-353.17316"
       cx="533.80212"
       id="circle4381"
       style="opacity:0.46200005;fill:#ffffff;fill-opacity:1;stroke:none;stroke-width:1.20000005;stroke-miterlimit:4;stroke-dasharray:none;stroke-dashoffset:0;stroke-opacity:1"
       rx="3.0308964"
       ry="3.0439034" />
    <ellipse
       transform="matrix(0.02366706,0.9997199,-0.99972466,0.02346512,0,0)"
       style="opacity:0.46200005;fill:#ffffff;fill-opacity:1;stroke:none;stroke-width:1.20000005;stroke-miterlimit:4;stroke-dasharray:none;stroke-dashoffset:0;stroke-opacity:1"
       id="circle4383"
       cx="-885.15448"
       cy="-93.286537"
       rx="3.0308964"
       ry="3.0439034" />
    <ellipse
       transform="matrix(0.02366706,0.9997199,-0.99972466,0.02346512,0,0)"
       style="opacity:0.46200005;fill:#ffffff;fill-opacity:1;stroke:none;stroke-width:1.20000005;stroke-miterlimit:4;stroke-dasharray:none;stroke-dashoffset:0;stroke-opacity:1"
       id="circle4399"
       cx="823.48804"
       cy="-1243.3657"
       rx="3.0308964"
       ry="3.0439034" />
    <ellipse
       transform="matrix(0.02366706,0.9997199,-0.99972466,0.02346512,0,0)"
       style="opacity:0.46200005;fill:#ffffff;fill-opacity:1;stroke:none;stroke-width:1.20000005;stroke-miterlimit:4;stroke-dasharray:none;stroke-dashoffset:0;stroke-opacity:1"
       id="circle4466"
       cx="47.052429"
       cy="-1496.5544"
       rx="2.8833177"
       ry="2.8956912" />
    <ellipse
       transform="matrix(0.02366706,0.9997199,-0.99972466,0.02346512,0,0)"
       style="opacity:0.46200005;fill:#ffffff;fill-opacity:1;stroke:none;stroke-width:1.20000005;stroke-miterlimit:4;stroke-dasharray:none;stroke-dashoffset:0;stroke-opacity:1"
       id="circle4470"
       cx="-23.099253"
       cy="-1005.4133"
       rx="2.8833177"
       ry="2.8956912" />
    <ellipse
       transform="matrix(0.02366706,0.9997199,-0.99972466,0.02346512,0,0)"
       style="opacity:0.46200005;fill:#ffffff;fill-opacity:1;stroke:none;stroke-width:1.20000005;stroke-miterlimit:4;stroke-dasharray:none;stroke-dashoffset:0;stroke-opacity:1"
       id="circle4474"
       cx="-656.4917"
       cy="-1668.2858"
       rx="2.8833177"
       ry="2.8956912" />
    <ellipse
       transform="matrix(0.02366706,0.9997199,-0.99972466,0.02346512,0,0)"
       cy="-881.18341"
       cx="-231.0173"
       id="circle4484"
       style="opacity:0.46200005;fill:#ffffff;fill-opacity:1;stroke:none;stroke-width:1.20000005;stroke-miterlimit:4;stroke-dasharray:none;stroke-dashoffset:0;stroke-opacity:1"
       rx="2.8833177"
       ry="2.8956912" />
    <ellipse
       style="opacity:0.46200005;fill:#ffffff;fill-opacity:1;stroke:none;stroke-width:1.20000005;stroke-miterlimit:4;stroke-dasharray:none;stroke-dashoffset:0;stroke-opacity:1"
       id="circle4512"
       cx="-836.28296"
       cy="-368.33624"
       transform="matrix(0.02366706,0.9997199,-0.99972466,0.02346512,0,0)"
       rx="2.8833177"
       ry="2.8956912" />
    <ellipse
       style="opacity:0.46200005;fill:#ffffff;fill-opacity:1;stroke:none;stroke-width:1.20000005;stroke-miterlimit:4;stroke-dasharray:none;stroke-dashoffset:0;stroke-opacity:1"
       id="circle4524"
       cx="218.71852"
       cy="-138.36139"
       transform="matrix(0.02366706,0.9997199,-0.99972466,0.02346512,0,0)"
       rx="2.8833177"
       ry="2.8956912" />
    <ellipse
       cy="-975.66498"
       cx="-849.67065"
       id="circle4526"
       style="opacity:0.46200005;fill:#ffffff;fill-opacity:1;stroke:none;stroke-width:1.20000005;stroke-miterlimit:4;stroke-dasharray:none;stroke-dashoffset:0;stroke-opacity:1"
       transform="matrix(0.02366706,0.9997199,-0.99972466,0.02346512,0,0)"
       rx="2.8833177"
       ry="2.8956912" />
    <ellipse
       style="opacity:0.46200005;fill:#ffffff;fill-opacity:1;stroke:none;stroke-width:1.20000005;stroke-miterlimit:4;stroke-dasharray:none;stroke-dashoffset:0;stroke-opacity:1"
       id="circle4528"
       cx="310.14789"
       cy="-1492.0845"
       transform="matrix(0.02366706,0.9997199,-0.99972466,0.02346512,0,0)"
       rx="2.8833177"
       ry="2.8956912" />
    <ellipse
       style="opacity:0.46200005;fill:#ffffff;fill-opacity:1;stroke:none;stroke-width:1.20000005;stroke-miterlimit:4;stroke-dasharray:none;stroke-dashoffset:0;stroke-opacity:1"
       id="circle4536"
       cx="-129.73721"
       cy="-1423.7115"
       transform="matrix(0.02366706,0.9997199,-0.99972466,0.02346512,0,0)"
       rx="2.8833177"
       ry="2.8956912" />
    <ellipse
       style="opacity:0.46200005;fill:#ffffff;fill-opacity:1;stroke:none;stroke-width:1.20000005;stroke-miterlimit:4;stroke-dasharray:none;stroke-dashoffset:0;stroke-opacity:1"
       id="circle4540"
       cx="-844.22961"
       cy="-815.73468"
       transform="matrix(0.02366706,0.9997199,-0.99972466,0.02346512,0,0)"
       rx="2.8833177"
       ry="2.8956912" />
    <ellipse
       cy="-238.38721"
       cx="-84.716568"
       id="circle4550"
       style="opacity:0.46200005;fill:#ffffff;fill-opacity:1;stroke:none;stroke-width:1.20000005;stroke-miterlimit:4;stroke-dasharray:none;stroke-dashoffset:0;stroke-opacity:1"
       transform="matrix(0.02366706,0.9997199,-0.99972466,0.02346512,0,0)"
       rx="2.8833177"
       ry="2.8956912" />
    <ellipse
       transform="matrix(0.02366706,0.9997199,-0.99972466,0.02346512,0,0)"
       cy="-1660.637"
       cx="-695.97894"
       id="circle4568"
       style="opacity:0.46200005;fill:#ffffff;fill-opacity:1;stroke:none;stroke-width:1.20000005;stroke-miterlimit:4;stroke-dasharray:none;stroke-dashoffset:0;stroke-opacity:1"
       rx="2.8833177"
       ry="2.8956912" />
    <ellipse
       transform="matrix(0.02366706,0.9997199,-0.99972466,0.02346512,0,0)"
       cy="-1728.4775"
       cx="737.55768"
       id="circle4580"
       style="opacity:0.46200005;fill:#ffffff;fill-opacity:1;stroke:none;stroke-width:1.20000005;stroke-miterlimit:4;stroke-dasharray:none;stroke-dashoffset:0;stroke-opacity:1"
       rx="2.8833177"
       ry="2.8956912" />
    <ellipse
       transform="matrix(0.02366706,0.9997199,-0.99972466,0.02346512,0,0)"
       style="opacity:0.46200005;fill:#ffffff;fill-opacity:1;stroke:none;stroke-width:1.20000005;stroke-miterlimit:4;stroke-dasharray:none;stroke-dashoffset:0;stroke-opacity:1"
       id="circle4586"
       cx="-93.666786"
       cy="-960.73578"
       rx="2.8833177"
       ry="2.8956912" />
    <ellipse
       style="opacity:0.46200005;fill:#ffffff;fill-opacity:1;stroke:none;stroke-width:1.20000005;stroke-miterlimit:4;stroke-dasharray:none;stroke-dashoffset:0;stroke-opacity:1"
       id="circle4596"
       cx="853.742"
       cy="-69.181328"
       transform="matrix(0.02366706,0.9997199,-0.99972466,0.02346512,0,0)"
       rx="2.8833177"
       ry="2.8956912" />
    <ellipse
       style="opacity:0.46200005;fill:#ffffff;fill-opacity:1;stroke:none;stroke-width:1.20000005;stroke-miterlimit:4;stroke-dasharray:none;stroke-dashoffset:0;stroke-opacity:1"
       id="circle4600"
       cx="-578.80646"
       cy="-1372.678"
       transform="matrix(0.02366706,0.9997199,-0.99972466,0.02346512,0,0)"
       rx="2.8833177"
       ry="2.8956912" />
    <ellipse
       cy="-1193.3661"
       cx="-581.07227"
       id="circle4606"
       style="opacity:0.46200005;fill:#ffffff;fill-opacity:1;stroke:none;stroke-width:1.20000005;stroke-miterlimit:4;stroke-dasharray:none;stroke-dashoffset:0;stroke-opacity:1"
       transform="matrix(0.02366706,0.9997199,-0.99972466,0.02346512,0,0)"
       rx="2.8833177"
       ry="2.8956912" />
    <ellipse
       style="opacity:0.46200005;fill:#ffffff;fill-opacity:1;stroke:none;stroke-width:1.20000005;stroke-miterlimit:4;stroke-dasharray:none;stroke-dashoffset:0;stroke-opacity:1"
       id="circle4608"
       cx="-231.30766"
       cy="-172.59923"
       transform="matrix(0.02366706,0.9997199,-0.99972466,0.02346512,0,0)"
       rx="2.8833177"
       ry="2.8956912" />
    <ellipse
       cy="-1528.7544"
       cx="-12.299621"
       id="circle4622"
       style="opacity:0.46200005;fill:#ffffff;fill-opacity:1;stroke:none;stroke-width:1.20000005;stroke-miterlimit:4;stroke-dasharray:none;stroke-dashoffset:0;stroke-opacity:1"
       transform="matrix(0.02366706,0.9997199,-0.99972466,0.02346512,0,0)"
       rx="2.8833177"
       ry="2.8956912" />
    <ellipse
       transform="matrix(0.02366706,0.9997199,-0.99972466,0.02346512,0,0)"
       style="opacity:0.46200005;fill:#ffffff;fill-opacity:1;stroke:none;stroke-width:1.20000005;stroke-miterlimit:4;stroke-dasharray:none;stroke-dashoffset:0;stroke-opacity:1"
       id="circle4642"
       cx="-786.91223"
       cy="-1598.2438"
       rx="2.8833177"
       ry="2.8956912" />
    <ellipse
       style="opacity:0.46200005;fill:#ffffff;fill-opacity:1;stroke:none;stroke-width:1.20000005;stroke-miterlimit:4;stroke-dasharray:none;stroke-dashoffset:0;stroke-opacity:1"
       id="circle4668"
       cx="-831.06378"
       cy="-1224.0449"
       transform="matrix(0.02366706,0.9997199,-0.99972466,0.02346512,0,0)"
       rx="2.8833177"
       ry="2.8956912" />
    <ellipse
       cy="-1834.8274"
       cx="601.74347"
       id="circle4682"
       style="opacity:0.46200005;fill:#ffffff;fill-opacity:1;stroke:none;stroke-width:1.20000005;stroke-miterlimit:4;stroke-dasharray:none;stroke-dashoffset:0;stroke-opacity:1"
       transform="matrix(0.02366706,0.9997199,-0.99972466,0.02346512,0,0)"
       rx="2.8833177"
       ry="2.8956912" />
    <ellipse
       transform="matrix(0.02366706,0.9997199,-0.99972466,0.02346512,0,0)"
       style="opacity:0.46200005;fill:#ffffff;fill-opacity:1;stroke:none;stroke-width:1.20000005;stroke-miterlimit:4;stroke-dasharray:none;stroke-dashoffset:0;stroke-opacity:1"
       id="circle4694"
       cx="994.20367"
       cy="-160.55867"
       rx="2.8833177"
       ry="2.8956912" />
    <ellipse
       transform="matrix(0.02366706,0.9997199,-0.99972466,0.02346512,0,0)"
       style="opacity:0.46200005;fill:#ffffff;fill-opacity:1;stroke:none;stroke-width:1.20000005;stroke-miterlimit:4;stroke-dasharray:none;stroke-dashoffset:0;stroke-opacity:1"
       id="circle4698"
       cx="778.65088"
       cy="-1915.9862"
       rx="2.8833177"
       ry="2.8956912" />
    <ellipse
       transform="matrix(0.02366706,0.9997199,-0.99972466,0.02346512,0,0)"
       style="opacity:0.46200005;fill:#ffffff;fill-opacity:1;stroke:none;stroke-width:1.20000005;stroke-miterlimit:4;stroke-dasharray:none;stroke-dashoffset:0;stroke-opacity:1"
       id="circle4706"
       cx="-302.03488"
       cy="-1595.1448"
       rx="2.8833177"
       ry="2.8956912" />
    <ellipse
       cy="-754.48059"
       cx="266.93839"
       id="circle4722"
       style="opacity:0.46200005;fill:#ffffff;fill-opacity:1;stroke:none;stroke-width:1.20000005;stroke-miterlimit:4;stroke-dasharray:none;stroke-dashoffset:0;stroke-opacity:1"
       transform="matrix(0.02366706,0.9997199,-0.99972466,0.02346512,0,0)"
       rx="2.8833177"
       ry="2.8956912" />
    <ellipse
       style="opacity:0.46200005;fill:#ffffff;fill-opacity:1;stroke:none;stroke-width:1.20000005;stroke-miterlimit:4;stroke-dasharray:none;stroke-dashoffset:0;stroke-opacity:1"
       id="circle4740"
       cx="-85.407059"
       cy="-1145.0642"
       transform="matrix(0.02366706,0.9997199,-0.99972466,0.02346512,0,0)"
       rx="2.8833177"
       ry="2.8956912" />
    <ellipse
       style="opacity:0.46200005;fill:#ffffff;fill-opacity:1;stroke:none;stroke-width:1.20000005;stroke-miterlimit:4;stroke-dasharray:none;stroke-dashoffset:0;stroke-opacity:1"
       id="circle4764"
       cx="-603.93762"
       cy="-1046.173"
       transform="matrix(0.02366706,0.9997199,-0.99972466,0.02346512,0,0)"
       rx="2.8833177"
       ry="2.8956912" />
    <ellipse
       transform="matrix(0.02366706,0.9997199,-0.99972466,0.02346512,0,0)"
       style="opacity:0.46200005;fill:#ffffff;fill-opacity:1;stroke:none;stroke-width:1.20000005;stroke-miterlimit:4;stroke-dasharray:none;stroke-dashoffset:0;stroke-opacity:1"
       id="circle4790"
       cx="-268.0209"
       cy="-804.42841"
       rx="2.8833177"
       ry="2.8956912" />
    <ellipse
       transform="matrix(0.02366706,0.9997199,-0.99972466,0.02346512,0,0)"
       cy="-582.22681"
       cx="156.75049"
       id="circle4792"
       style="opacity:0.46200005;fill:#ffffff;fill-opacity:1;stroke:none;stroke-width:1.20000005;stroke-miterlimit:4;stroke-dasharray:none;stroke-dashoffset:0;stroke-opacity:1"
       rx="2.8833177"
       ry="2.8956912" />
    <ellipse
       transform="matrix(0.02366706,0.9997199,-0.99972466,0.02346512,0,0)"
       cy="-428.96564"
       cx="-493.5098"
       id="circle4800"
       style="opacity:0.46200005;fill:#ffffff;fill-opacity:1;stroke:none;stroke-width:1.20000005;stroke-miterlimit:4;stroke-dasharray:none;stroke-dashoffset:0;stroke-opacity:1"
       rx="2.8833177"
       ry="2.8956912" />
    <ellipse
       transform="matrix(0.02366706,0.9997199,-0.99972466,0.02346512,0,0)"
       style="opacity:0.46200005;fill:#ffffff;fill-opacity:1;stroke:none;stroke-width:1.20000005;stroke-miterlimit:4;stroke-dasharray:none;stroke-dashoffset:0;stroke-opacity:1"
       id="circle4806"
       cx="966.92236"
       cy="-1677.0798"
       rx="2.8833177"
       ry="2.8956912" />
    <ellipse
       transform="matrix(0.02366706,0.9997199,-0.99972466,0.02346512,0,0)"
       cy="-1947.5691"
       cx="405.14481"
       id="circle4812"
       style="opacity:0.46200005;fill:#ffffff;fill-opacity:1;stroke:none;stroke-width:1.20000005;stroke-miterlimit:4;stroke-dasharray:none;stroke-dashoffset:0;stroke-opacity:1"
       rx="2.8833177"
       ry="2.8956912" />
    <ellipse
       transform="matrix(0.02366706,0.9997199,-0.99972466,0.02346512,0,0)"
       cy="-1277.5176"
       cx="-328.40332"
       id="circle4820"
       style="opacity:0.46200005;fill:#ffffff;fill-opacity:1;stroke:none;stroke-width:1.20000005;stroke-miterlimit:4;stroke-dasharray:none;stroke-dashoffset:0;stroke-opacity:1"
       rx="2.8833177"
       ry="2.8956912" />
    <ellipse
       transform="matrix(0.02366706,0.9997199,-0.99972466,0.02346512,0,0)"
       style="opacity:0.46200005;fill:#ffffff;fill-opacity:1;stroke:none;stroke-width:1.20000005;stroke-miterlimit:4;stroke-dasharray:none;stroke-dashoffset:0;stroke-opacity:1"
       id="circle4822"
       cx="-701.61359"
       cy="-953.79272"
       rx="2.8833177"
       ry="2.8956912" />
    <ellipse
       transform="matrix(0.02366706,0.9997199,-0.99972466,0.02346512,0,0)"
       style="opacity:0.46200005;fill:#ffffff;fill-opacity:1;stroke:none;stroke-width:1.20000005;stroke-miterlimit:4;stroke-dasharray:none;stroke-dashoffset:0;stroke-opacity:1"
       id="circle4826"
       cx="329.95349"
       cy="-579.64893"
       rx="2.8833177"
       ry="2.8956912" />
    <ellipse
       transform="matrix(0.02366706,0.9997199,-0.99972466,0.02346512,0,0)"
       cy="-968.40021"
       cx="-396.48666"
       id="circle4836"
       style="opacity:0.46200005;fill:#ffffff;fill-opacity:1;stroke:none;stroke-width:1.20000005;stroke-miterlimit:4;stroke-dasharray:none;stroke-dashoffset:0;stroke-opacity:1"
       rx="2.8833177"
       ry="2.8956912" />
    <ellipse
       cy="-4.9503474"
       cx="990.10736"
       id="circle4854"
       style="opacity:0.46200005;fill:#ffffff;fill-opacity:1;stroke:none;stroke-width:1.20000005;stroke-miterlimit:4;stroke-dasharray:none;stroke-dashoffset:0;stroke-opacity:1"
       transform="matrix(0.02366706,0.9997199,-0.99972466,0.02346512,0,0)"
       rx="2.8833177"
       ry="2.8956912" />
    <ellipse
       cy="-1620.9484"
       cx="691.84442"
       id="circle4858"
       style="opacity:0.46200005;fill:#ffffff;fill-opacity:1;stroke:none;stroke-width:1.20000005;stroke-miterlimit:4;stroke-dasharray:none;stroke-dashoffset:0;stroke-opacity:1"
       transform="matrix(0.02366706,0.9997199,-0.99972466,0.02346512,0,0)"
       rx="2.8833177"
       ry="2.8956912" />
    <ellipse
       style="opacity:0.46200005;fill:#ffffff;fill-opacity:1;stroke:none;stroke-width:1.20000005;stroke-miterlimit:4;stroke-dasharray:none;stroke-dashoffset:0;stroke-opacity:1"
       id="circle4860"
       cx="-304.69449"
       cy="-1837.4165"
       transform="matrix(0.02366706,0.9997199,-0.99972466,0.02346512,0,0)"
       rx="2.8833177"
       ry="2.8956912" />
    <ellipse
       cy="-407.93808"
       cx="247.22884"
       id="circle4866"
       style="opacity:0.46200005;fill:#ffffff;fill-opacity:1;stroke:none;stroke-width:1.20000005;stroke-miterlimit:4;stroke-dasharray:none;stroke-dashoffset:0;stroke-opacity:1"
       transform="matrix(0.02366706,0.9997199,-0.99972466,0.02346512,0,0)"
       rx="2.8833177"
       ry="2.8956912" />
    <ellipse
       cy="-1143.3673"
       cx="402.32648"
       id="circle4874"
       style="opacity:0.46200005;fill:#ffffff;fill-opacity:1;stroke:none;stroke-width:1.20000005;stroke-miterlimit:4;stroke-dasharray:none;stroke-dashoffset:0;stroke-opacity:1"
       transform="matrix(0.02366706,0.9997199,-0.99972466,0.02346512,0,0)"
       rx="2.8833177"
       ry="2.8956912" />
    <ellipse
       transform="matrix(0.02366706,0.9997199,-0.99972466,0.02346512,0,0)"
       style="opacity:0.46200005;fill:#ffffff;fill-opacity:1;stroke:none;stroke-width:1.20000005;stroke-miterlimit:4;stroke-dasharray:none;stroke-dashoffset:0;stroke-opacity:1"
       id="circle4890"
       cx="329.452"
       cy="-396.40106"
       rx="2.8833177"
       ry="2.8956912" />
    <ellipse
       style="opacity:0.46200005;fill:#ffffff;fill-opacity:1;stroke:none;stroke-width:1.20000005;stroke-miterlimit:4;stroke-dasharray:none;stroke-dashoffset:0;stroke-opacity:1"
       id="circle4912"
       cx="-229.76564"
       cy="-875.49036"
       transform="matrix(0.02366706,0.9997199,-0.99972466,0.02346512,0,0)"
       rx="2.8833177"
       ry="2.8956912" />
    <ellipse
       style="opacity:0.46200005;fill:#ffffff;fill-opacity:1;stroke:none;stroke-width:1.20000005;stroke-miterlimit:4;stroke-dasharray:none;stroke-dashoffset:0;stroke-opacity:1"
       id="circle4928"
       cx="23.567562"
       cy="-794.11804"
       transform="matrix(0.02366706,0.9997199,-0.99972466,0.02346512,0,0)"
       rx="2.8833177"
       ry="2.8956912" />
    <ellipse
       style="opacity:0.46200005;fill:#ffffff;fill-opacity:1;stroke:none;stroke-width:1.20000005;stroke-miterlimit:4;stroke-dasharray:none;stroke-dashoffset:0;stroke-opacity:1"
       id="circle4932"
       cx="-398.20242"
       cy="-1754.7965"
       transform="matrix(0.02366706,0.9997199,-0.99972466,0.02346512,0,0)"
       rx="2.8833177"
       ry="2.8956912" />
    <ellipse
       transform="matrix(0.02366706,0.9997199,-0.99972466,0.02346512,0,0)"
       cy="-1540.1239"
       cx="340.87167"
       id="circle4948"
       style="opacity:0.46200005;fill:#ffffff;fill-opacity:1;stroke:none;stroke-width:1.20000005;stroke-miterlimit:4;stroke-dasharray:none;stroke-dashoffset:0;stroke-opacity:1"
       rx="2.8833177"
       ry="2.8956912" />
    <ellipse
       transform="matrix(0.02366706,0.9997199,-0.99972466,0.02346512,0,0)"
       cy="-419.07254"
       cx="-215.91978"
       id="circle4952"
       style="opacity:0.46200005;fill:#ffffff;fill-opacity:1;stroke:none;stroke-width:1.20000005;stroke-miterlimit:4;stroke-dasharray:none;stroke-dashoffset:0;stroke-opacity:1"
       rx="2.8833177"
       ry="2.8956912" />
    <ellipse
       transform="matrix(0.02366706,0.9997199,-0.99972466,0.02346512,0,0)"
       style="opacity:0.46200005;fill:#ffffff;fill-opacity:1;stroke:none;stroke-width:1.20000005;stroke-miterlimit:4;stroke-dasharray:none;stroke-dashoffset:0;stroke-opacity:1"
       id="circle4958"
       cx="454.85727"
       cy="-389.33627"
       rx="2.8833177"
       ry="2.8956912" />
    <ellipse
       transform="matrix(0.02366706,0.9997199,-0.99972466,0.02346512,0,0)"
       style="opacity:0.46200005;fill:#ffffff;fill-opacity:1;stroke:none;stroke-width:1.20000005;stroke-miterlimit:4;stroke-dasharray:none;stroke-dashoffset:0;stroke-opacity:1"
       id="circle4962"
       cx="-289.11993"
       cy="-1151.2601"
       rx="2.8833177"
       ry="2.8956912" />
    <ellipse
       transform="matrix(0.02366706,0.9997199,-0.99972466,0.02346512,0,0)"
       style="opacity:0.46200005;fill:#ffffff;fill-opacity:1;stroke:none;stroke-width:1.20000005;stroke-miterlimit:4;stroke-dasharray:none;stroke-dashoffset:0;stroke-opacity:1"
       id="circle4970"
       cx="816.87177"
       cy="-229.3121"
       rx="2.8833177"
       ry="2.8956912" />
    <ellipse
       transform="matrix(0.02366706,0.9997199,-0.99972466,0.02346512,0,0)"
       style="opacity:0.46200005;fill:#ffffff;fill-opacity:1;stroke:none;stroke-width:1.20000005;stroke-miterlimit:4;stroke-dasharray:none;stroke-dashoffset:0;stroke-opacity:1"
       id="circle4974"
       cx="589.18219"
       cy="-1364.2421"
       rx="2.8833177"
       ry="2.8956912" />
    <ellipse
       style="opacity:0.46200005;fill:#ffffff;fill-opacity:1;stroke:none;stroke-width:1.20000005;stroke-miterlimit:4;stroke-dasharray:none;stroke-dashoffset:0;stroke-opacity:1"
       id="circle4976"
       cx="641.40234"
       cy="-1235.7101"
       transform="matrix(0.02366706,0.9997199,-0.99972466,0.02346512,0,0)"
       rx="2.8833177"
       ry="2.8956912" />
    <ellipse
       cy="-363.24017"
       cx="983.33826"
       id="circle4978"
       style="opacity:0.46200005;fill:#ffffff;fill-opacity:1;stroke:none;stroke-width:1.20000005;stroke-miterlimit:4;stroke-dasharray:none;stroke-dashoffset:0;stroke-opacity:1"
       transform="matrix(0.02366706,0.9997199,-0.99972466,0.02346512,0,0)"
       rx="2.8833177"
       ry="2.8956912" />
    <ellipse
       cy="-1603.4933"
       cx="680.44653"
       id="circle4982"
       style="opacity:0.46200005;fill:#ffffff;fill-opacity:1;stroke:none;stroke-width:1.20000005;stroke-miterlimit:4;stroke-dasharray:none;stroke-dashoffset:0;stroke-opacity:1"
       transform="matrix(0.02366706,0.9997199,-0.99972466,0.02346512,0,0)"
       rx="2.8833177"
       ry="2.8956912" />
    <ellipse
       transform="matrix(0.02366706,0.9997199,-0.99972466,0.02346512,0,0)"
       cy="-1498.458"
       cx="-22.62184"
       id="circle5012"
       style="opacity:0.46200005;fill:#ffffff;fill-opacity:1;stroke:none;stroke-width:1.20000005;stroke-miterlimit:4;stroke-dasharray:none;stroke-dashoffset:0;stroke-opacity:1"
       rx="2.8833177"
       ry="2.8956912" />
    <ellipse
       transform="matrix(0.02366706,0.9997199,-0.99972466,0.02346512,0,0)"
       style="opacity:0.46200005;fill:#ffffff;fill-opacity:1;stroke:none;stroke-width:1.20000005;stroke-miterlimit:4;stroke-dasharray:none;stroke-dashoffset:0;stroke-opacity:1"
       id="circle5018"
       cx="485.96341"
       cy="-17.77136"
       rx="2.8833177"
       ry="2.8956912" />
    <ellipse
       transform="matrix(0.02366706,0.9997199,-0.99972466,0.02346512,0,0)"
       style="opacity:0.46200005;fill:#ffffff;fill-opacity:1;stroke:none;stroke-width:1.20000005;stroke-miterlimit:4;stroke-dasharray:none;stroke-dashoffset:0;stroke-opacity:1"
       id="circle5022"
       cx="743.92133"
       cy="-720.62341"
       rx="2.8833177"
       ry="2.8956912" />
    <ellipse
       transform="matrix(0.02366706,0.9997199,-0.99972466,0.02346512,0,0)"
       cy="-456.29187"
       cx="304.49457"
       id="circle5024"
       style="opacity:0.46200005;fill:#ffffff;fill-opacity:1;stroke:none;stroke-width:1.20000005;stroke-miterlimit:4;stroke-dasharray:none;stroke-dashoffset:0;stroke-opacity:1"
       rx="2.8833177"
       ry="2.8956912" />
    <ellipse
       transform="matrix(0.02366706,0.9997199,-0.99972466,0.02346512,0,0)"
       style="opacity:0.46200005;fill:#ffffff;fill-opacity:1;stroke:none;stroke-width:1.20000005;stroke-miterlimit:4;stroke-dasharray:none;stroke-dashoffset:0;stroke-opacity:1"
       id="circle5030"
       cx="855.84991"
       cy="-1706.2517"
       rx="2.8833177"
       ry="2.8956912" />
    <ellipse
       transform="matrix(0.02366706,0.9997199,-0.99972466,0.02346512,0,0)"
       cy="-67.438072"
       cx="-43.690994"
       id="circle5032"
       style="opacity:0.46200005;fill:#ffffff;fill-opacity:1;stroke:none;stroke-width:1.20000005;stroke-miterlimit:4;stroke-dasharray:none;stroke-dashoffset:0;stroke-opacity:1"
       rx="2.8833177"
       ry="2.8956912" />
    <ellipse
       transform="matrix(0.02366706,0.9997199,-0.99972466,0.02346512,0,0)"
       cy="-1829.4727"
       cx="85.30722"
       id="circle5044"
       style="opacity:0.46200005;fill:#ffffff;fill-opacity:1;stroke:none;stroke-width:1.20000005;stroke-miterlimit:4;stroke-dasharray:none;stroke-dashoffset:0;stroke-opacity:1"
       rx="2.8833177"
       ry="2.8956912" />
    <ellipse
       transform="matrix(0.02366706,0.9997199,-0.99972466,0.02346512,0,0)"
       cy="-383.10291"
       cx="749.47217"
       id="circle5052"
       style="opacity:0.46200005;fill:#ffffff;fill-opacity:1;stroke:none;stroke-width:1.20000005;stroke-miterlimit:4;stroke-dasharray:none;stroke-dashoffset:0;stroke-opacity:1"
       rx="2.8833177"
       ry="2.8956912" />
    <ellipse
       transform="matrix(0.02366706,0.9997199,-0.99972466,0.02346512,0,0)"
       cy="-449.83713"
       cx="80.041748"
       id="circle5068"
       style="opacity:0.46200005;fill:#ffffff;fill-opacity:1;stroke:none;stroke-width:1.20000005;stroke-miterlimit:4;stroke-dasharray:none;stroke-dashoffset:0;stroke-opacity:1"
       rx="2.8833177"
       ry="2.8956912" />
    <ellipse
       style="opacity:0.46200005;fill:#ffffff;fill-opacity:1;stroke:none;stroke-width:1.20000005;stroke-miterlimit:4;stroke-dasharray:none;stroke-dashoffset:0;stroke-opacity:1"
       id="circle5096"
       cx="-488.09668"
       cy="-568.7179"
       transform="matrix(0.02366706,0.9997199,-0.99972466,0.02346512,0,0)"
       rx="2.8833177"
       ry="2.8956912" />
    <ellipse
       cy="-386.36887"
       cx="17.915922"
       id="circle5098"
       style="opacity:0.46200005;fill:#ffffff;fill-opacity:1;stroke:none;stroke-width:1.20000005;stroke-miterlimit:4;stroke-dasharray:none;stroke-dashoffset:0;stroke-opacity:1"
       transform="matrix(0.02366706,0.9997199,-0.99972466,0.02346512,0,0)"
       rx="2.8833177"
       ry="2.8956912" />
    <ellipse
       cy="-199.74704"
       cx="360.27847"
       id="circle5110"
       style="opacity:0.46200005;fill:#ffffff;fill-opacity:1;stroke:none;stroke-width:1.20000005;stroke-miterlimit:4;stroke-dasharray:none;stroke-dashoffset:0;stroke-opacity:1"
       transform="matrix(0.02366706,0.9997199,-0.99972466,0.02346512,0,0)"
       rx="2.8833177"
       ry="2.8956912" />
    <ellipse
       style="opacity:0.46200005;fill:#ffffff;fill-opacity:1;stroke:none;stroke-width:1.20000005;stroke-miterlimit:4;stroke-dasharray:none;stroke-dashoffset:0;stroke-opacity:1"
       id="circle5120"
       cx="-523.11462"
       cy="-704.52454"
       transform="matrix(0.02366706,0.9997199,-0.99972466,0.02346512,0,0)"
       rx="2.8833177"
       ry="2.8956912" />
    <ellipse
       cy="-1441.2767"
       cx="-103.88972"
       id="circle5122"
       style="opacity:0.46200005;fill:#ffffff;fill-opacity:1;stroke:none;stroke-width:1.20000005;stroke-miterlimit:4;stroke-dasharray:none;stroke-dashoffset:0;stroke-opacity:1"
       transform="matrix(0.02366706,0.9997199,-0.99972466,0.02346512,0,0)"
       rx="2.8833177"
       ry="2.8956912" />
    <ellipse
       transform="matrix(0.02366706,0.9997199,-0.99972466,0.02346512,0,0)"
       style="opacity:0.46200005;fill:#ffffff;fill-opacity:1;stroke:none;stroke-width:1.20000005;stroke-miterlimit:4;stroke-dasharray:none;stroke-dashoffset:0;stroke-opacity:1"
       id="circle5138"
       cx="813.07751"
       cy="-1286.5754"
       rx="2.8833177"
       ry="2.8956912" />
    <ellipse
       transform="matrix(0.02366706,0.9997199,-0.99972466,0.02346512,0,0)"
       cy="-1969.5697"
       cx="-715.8866"
       id="circle5140"
       style="opacity:0.46200005;fill:#ffffff;fill-opacity:1;stroke:none;stroke-width:1.20000005;stroke-miterlimit:4;stroke-dasharray:none;stroke-dashoffset:0;stroke-opacity:1"
       rx="2.8833177"
       ry="2.8956912" />
    <ellipse
       transform="matrix(0.02366706,0.9997199,-0.99972466,0.02346512,0,0)"
       style="opacity:0.46200005;fill:#ffffff;fill-opacity:1;stroke:none;stroke-width:1.20000005;stroke-miterlimit:4;stroke-dasharray:none;stroke-dashoffset:0;stroke-opacity:1"
       id="circle5142"
       cx="-86.788078"
       cy="-1591.7256"
       rx="2.8833177"
       ry="2.8956912" />
    <ellipse
       transform="matrix(0.02366706,0.9997199,-0.99972466,0.02346512,0,0)"
       style="opacity:0.46200005;fill:#ffffff;fill-opacity:1;stroke:none;stroke-width:1.20000005;stroke-miterlimit:4;stroke-dasharray:none;stroke-dashoffset:0;stroke-opacity:1"
       id="circle5150"
       cx="650.24908"
       cy="-78.970398"
       rx="2.8833177"
       ry="2.8956912" />
    <ellipse
       transform="matrix(0.02366706,0.9997199,-0.99972466,0.02346512,0,0)"
       cy="-143.71254"
       cx="354.54669"
       id="circle5152"
       style="opacity:0.46200005;fill:#ffffff;fill-opacity:1;stroke:none;stroke-width:1.20000005;stroke-miterlimit:4;stroke-dasharray:none;stroke-dashoffset:0;stroke-opacity:1"
       rx="2.8833177"
       ry="2.8956912" />
    <ellipse
       transform="matrix(0.02366706,0.9997199,-0.99972466,0.02346512,0,0)"
       cy="-1456.3999"
       cx="811.60895"
       id="circle5160"
       style="opacity:0.46200005;fill:#ffffff;fill-opacity:1;stroke:none;stroke-width:1.20000005;stroke-miterlimit:4;stroke-dasharray:none;stroke-dashoffset:0;stroke-opacity:1"
       rx="2.8833177"
       ry="2.8956912" />
    <ellipse
       cy="-164.61354"
       cx="776.30157"
       id="circle5170"
       style="opacity:0.46200005;fill:#ffffff;fill-opacity:1;stroke:none;stroke-width:1.20000005;stroke-miterlimit:4;stroke-dasharray:none;stroke-dashoffset:0;stroke-opacity:1"
       transform="matrix(0.02366706,0.9997199,-0.99972466,0.02346512,0,0)"
       rx="2.8833177"
       ry="2.8956912" />
    <ellipse
       cy="-1957.4706"
       cx="293.92743"
       id="circle5182"
       style="opacity:0.46200005;fill:#ffffff;fill-opacity:1;stroke:none;stroke-width:1.20000005;stroke-miterlimit:4;stroke-dasharray:none;stroke-dashoffset:0;stroke-opacity:1"
       transform="matrix(0.02366706,0.9997199,-0.99972466,0.02346512,0,0)"
       rx="2.8833177"
       ry="2.8956912" />
    <ellipse
       style="opacity:0.46200005;fill:#ffffff;fill-opacity:1;stroke:none;stroke-width:1.20000005;stroke-miterlimit:4;stroke-dasharray:none;stroke-dashoffset:0;stroke-opacity:1"
       id="circle5184"
       cx="607.85718"
       cy="-1059.4568"
       transform="matrix(0.02366706,0.9997199,-0.99972466,0.02346512,0,0)"
       rx="2.8833177"
       ry="2.8956912" />
    <ellipse
       cy="-224.40848"
       cx="-862.10278"
       id="circle5190"
       style="opacity:0.46200005;fill:#ffffff;fill-opacity:1;stroke:none;stroke-width:1.20000005;stroke-miterlimit:4;stroke-dasharray:none;stroke-dashoffset:0;stroke-opacity:1"
       transform="matrix(0.02366706,0.9997199,-0.99972466,0.02346512,0,0)"
       rx="2.8833177"
       ry="2.8956912" />
    <ellipse
       cy="-1073.2222"
       cx="1005.9085"
       id="circle5194"
       style="opacity:0.46200005;fill:#ffffff;fill-opacity:1;stroke:none;stroke-width:1.20000005;stroke-miterlimit:4;stroke-dasharray:none;stroke-dashoffset:0;stroke-opacity:1"
       transform="matrix(0.02366706,0.9997199,-0.99972466,0.02346512,0,0)"
       rx="2.8833177"
       ry="2.8956912" />
    <ellipse
       transform="matrix(0.02366706,0.9997199,-0.99972466,0.02346512,0,0)"
       cy="-413.96902"
       cx="-710.92255"
       id="circle5200"
       style="opacity:0.46200005;fill:#ffffff;fill-opacity:1;stroke:none;stroke-width:1.20000005;stroke-miterlimit:4;stroke-dasharray:none;stroke-dashoffset:0;stroke-opacity:1"
       rx="2.8833177"
       ry="2.8956912" />
    <ellipse
       transform="matrix(0.02366706,0.9997199,-0.99972466,0.02346512,0,0)"
       style="opacity:0.46200005;fill:#ffffff;fill-opacity:1;stroke:none;stroke-width:1.20000005;stroke-miterlimit:4;stroke-dasharray:none;stroke-dashoffset:0;stroke-opacity:1"
       id="circle5202"
       cx="-754.3642"
       cy="-546.4209"
       rx="2.8833177"
       ry="2.8956912" />
    <ellipse
       transform="matrix(0.02366706,0.9997199,-0.99972466,0.02346512,0,0)"
       cy="-728.59058"
       cx="745.3313"
       id="circle5204"
       style="opacity:0.46200005;fill:#ffffff;fill-opacity:1;stroke:none;stroke-width:1.20000005;stroke-miterlimit:4;stroke-dasharray:none;stroke-dashoffset:0;stroke-opacity:1"
       rx="2.8833177"
       ry="2.8956912" />
    <ellipse
       transform="matrix(0.02366706,0.9997199,-0.99972466,0.02346512,0,0)"
       style="opacity:0.46200005;fill:#ffffff;fill-opacity:1;stroke:none;stroke-width:1.20000005;stroke-miterlimit:4;stroke-dasharray:none;stroke-dashoffset:0;stroke-opacity:1"
       id="circle5206"
       cx="42.688511"
       cy="-316.42392"
       rx="2.8833177"
       ry="2.8956912" />
    <ellipse
       transform="matrix(0.02366706,0.9997199,-0.99972466,0.02346512,0,0)"
       cy="-1342.0238"
       cx="-724.25574"
       id="circle5212"
       style="opacity:0.46200005;fill:#ffffff;fill-opacity:1;stroke:none;stroke-width:1.20000005;stroke-miterlimit:4;stroke-dasharray:none;stroke-dashoffset:0;stroke-opacity:1"
       rx="2.8833177"
       ry="2.8956912" />
    <ellipse
       style="opacity:0.46200005;fill:#ffffff;fill-opacity:1;stroke:none;stroke-width:1.20000005;stroke-miterlimit:4;stroke-dasharray:none;stroke-dashoffset:0;stroke-opacity:1"
       id="circle5248"
       cx="-436.07394"
       cy="-73.143265"
       transform="matrix(0.02366706,0.9997199,-0.99972466,0.02346512,0,0)"
       rx="2.8833177"
       ry="2.8956912" />
    <ellipse
       cy="-1969.7904"
       cx="-392.93765"
       id="circle5258"
       style="opacity:0.46200005;fill:#ffffff;fill-opacity:1;stroke:none;stroke-width:1.20000005;stroke-miterlimit:4;stroke-dasharray:none;stroke-dashoffset:0;stroke-opacity:1"
       transform="matrix(0.02366706,0.9997199,-0.99972466,0.02346512,0,0)"
       rx="2.8833177"
       ry="2.8956912" />
    <ellipse
       style="opacity:0.46200005;fill:#ffffff;fill-opacity:1;stroke:none;stroke-width:1.20000005;stroke-miterlimit:4;stroke-dasharray:none;stroke-dashoffset:0;stroke-opacity:1"
       id="circle5260"
       cx="-843.9458"
       cy="-897.55487"
       transform="matrix(0.02366706,0.9997199,-0.99972466,0.02346512,0,0)"
       rx="2.8833177"
       ry="2.8956912" />
    <ellipse
       transform="matrix(0.02366706,0.9997199,-0.99972466,0.02346512,0,0)"
       cy="-695.30933"
       cx="-352.3154"
       id="circle5276"
       style="opacity:0.46200005;fill:#ffffff;fill-opacity:1;stroke:none;stroke-width:1.20000005;stroke-miterlimit:4;stroke-dasharray:none;stroke-dashoffset:0;stroke-opacity:1"
       rx="2.8833177"
       ry="2.8956912" />
    <ellipse
       transform="matrix(0.02366706,0.9997199,-0.99972466,0.02346512,0,0)"
       cy="-1248.3871"
       cx="655.72089"
       id="circle5284"
       style="opacity:0.46200005;fill:#ffffff;fill-opacity:1;stroke:none;stroke-width:1.20000005;stroke-miterlimit:4;stroke-dasharray:none;stroke-dashoffset:0;stroke-opacity:1"
       rx="2.8833177"
       ry="2.8956912" />
  </g>
</svg>
